<?xml version="1.0" encoding="UTF-8" standalone="no"?>
<!-- Created with Inkscape (http://www.inkscape.org/) -->

<svg
   xmlns:dc="http://purl.org/dc/elements/1.1/"
   xmlns:cc="http://creativecommons.org/ns#"
   xmlns:rdf="http://www.w3.org/1999/02/22-rdf-syntax-ns#"
   xmlns:svg="http://www.w3.org/2000/svg"
   xmlns="http://www.w3.org/2000/svg"
   xmlns:sodipodi="http://sodipodi.sourceforge.net/DTD/sodipodi-0.dtd"
   xmlns:inkscape="http://www.inkscape.org/namespaces/inkscape"
   version="1.1"
   id="svg844"
   xml:space="preserve"
   width="1500"
   height="500"
   viewBox="0 0 1500 500"
   sodipodi:docname="banner-twitter.svg"
   inkscape:version="0.92.2 5c3e80d, 2017-08-06"
   inkscape:export-filename="/Users/findutnyy/Code/indutny/peerlinks-desktop/Artwork/banner-twitter-1500x500.png"
   inkscape:export-xdpi="96"
   inkscape:export-ydpi="96"><metadata
     id="metadata850"><rdf:RDF><cc:Work
         rdf:about=""><dc:format>image/svg+xml</dc:format><dc:type
           rdf:resource="http://purl.org/dc/dcmitype/StillImage" /><dc:title></dc:title></cc:Work></rdf:RDF></metadata><defs
     id="defs848"><clipPath
       clipPathUnits="userSpaceOnUse"
       id="clipPath920"><path
         d="m 4179.41,7297.28 -134.56,-84.86 0.8,-2.08 c 18.49,-29.35 30,-60.66 35.25,-92.61 7.86,-47.87 1.42,-97.18 -17.95,-141.23 -9.68,-22.02 -22.55,-42.71 -38.45,-61.34 -15.91,-18.62 -34.82,-35.2 -56.83,-49.09 -29.34,-18.49 -60.66,-29.99 -92.6,-35.24 -47.88,-7.87 -97.19,-1.42 -141.23,17.95 -22.03,9.67 -42.72,22.55 -61.34,38.45 -18.63,15.91 -35.21,34.82 -49.09,56.82 -18.49,29.35 -30,60.67 -35.25,92.61 -7.86,47.87 -1.42,97.18 17.95,141.23 9.68,22.02 22.55,42.71 38.45,61.34 15.91,18.63 34.82,35.2 56.83,49.09 l -139.28,212.16 -13.79,-126.29 c -20.59,-19.43 -33.43,-40.68 -49.22,-63.37 -45.54,-65.47 -70.6,-142.41 -73.09,-221.05 -2.52,-78.59 17.81,-159.23 62.84,-230.57 29.97,-47.55 68.44,-87.09 112.06,-117.43 65.47,-45.54 142.41,-70.6 221.04,-73.09 78.59,-2.53 159.24,17.8 230.58,62.83 47.55,29.98 87.08,68.44 117.43,112.07 45.54,65.46 70.6,142.4 73.09,221.04 2.52,78.59 -18.61,161.31 -63.64,232.66 z"
         id="path918"
         inkscape:connector-curvature="0" /></clipPath><radialGradient
       fx="0"
       fy="0"
       cx="0"
       cy="0"
       r="1"
       gradientUnits="userSpaceOnUse"
       gradientTransform="matrix(614.391,455.308,455.308,-614.391,3983.98,7097.73)"
       spreadMethod="pad"
       id="radialGradient926"><stop
         style="stop-opacity:1;stop-color:#2a409e"
         offset="0"
         id="stop922" /><stop
         style="stop-opacity:1;stop-color:#7bd3dd"
         offset="1"
         id="stop924" /></radialGradient><clipPath
       clipPathUnits="userSpaceOnUse"
       id="clipPath936"><path
         d="m 4532.85,7517.59 c -29.97,47.54 -68.43,87.08 -112.06,117.42 -65.46,45.54 -142.41,70.61 -221.04,73.1 -78.59,2.52 -159.23,-17.81 -230.58,-62.84 -47.55,-29.98 -87.08,-68.44 -117.42,-112.06 -45.55,-65.47 -70.61,-142.41 -73.1,-221.05 -2.52,-78.59 17.81,-159.23 62.84,-230.57 l 134.56,84.85 v 0 c -18.49,29.35 -30,60.66 -35.25,92.61 -7.86,47.87 -1.42,97.18 17.95,141.23 9.68,22.02 22.55,42.71 38.45,61.34 15.91,18.63 34.83,35.2 56.83,49.09 29.34,18.49 60.66,29.99 92.6,35.24 47.88,7.87 97.19,1.42 141.24,-17.94 22.02,-9.68 42.71,-22.56 61.34,-38.46 18.62,-15.9 35.2,-34.82 49.08,-56.82 18.49,-29.35 30,-60.66 35.25,-92.61 7.87,-47.87 1.42,-97.18 -17.95,-141.23 -9.68,-22.02 -22.55,-42.71 -38.45,-61.34 -15.91,-18.63 -34.82,-35.2 -56.83,-49.09 l 133.8,-212.16 13.79,126.29 c 20.59,19.43 38.92,40.68 54.7,63.37 45.54,65.47 70.6,142.41 73.09,221.05 2.53,78.59 -17.81,159.23 -62.84,230.58 z"
         id="path934"
         inkscape:connector-curvature="0" /></clipPath><radialGradient
       fx="0"
       fy="0"
       cx="0"
       cy="0"
       r="1"
       gradientUnits="userSpaceOnUse"
       gradientTransform="matrix(614.393,455.309,455.309,-614.393,3983.98,7097.73)"
       spreadMethod="pad"
       id="radialGradient942"><stop
         style="stop-opacity:1;stop-color:#2a409e"
         offset="0"
         id="stop938" /><stop
         style="stop-opacity:1;stop-color:#7bd3dd"
         offset="1"
         id="stop940" /></radialGradient><clipPath
       clipPathUnits="userSpaceOnUse"
       id="clipPath952"><path
         d="m 3818.5,6684.92 c -4.22,0 -8.44,0.07 -12.65,0.21 -77.37,2.45 -151.76,27.04 -215.13,71.13 -43.74,30.42 -80.43,68.87 -109.05,114.27 -42.56,67.43 -63.7,145.02 -61.15,224.38 2.45,77.36 27.05,151.75 71.13,215.13 15.35,22.06 33.25,42.81 53.23,61.66 l 2.93,2.77 10.82,99.05 111.29,-176.48 c -18.7,-12.91 -35.53,-28.08 -50.16,-45.2 -16.42,-19.24 -29.93,-40.79 -40.15,-64.05 -20.46,-46.52 -26.94,-97.5 -18.73,-147.42 5.64,-34.37 18.03,-66.9 36.79,-96.68 14.12,-22.39 31.36,-42.35 51.24,-59.32 19.24,-16.42 40.78,-29.93 64.05,-40.15 32.96,-14.49 69.43,-22.15 105.47,-22.15 14.05,0 28.17,1.15 41.96,3.41 34.38,5.65 66.9,18.03 96.67,36.79 22.4,14.14 42.36,31.38 59.33,51.26 16.42,19.23 29.93,40.79 40.15,64.05 20.45,46.52 26.93,97.49 18.73,147.42 -5.06,30.78 -15.52,60.1 -31.13,87.27 l 116.07,73.2 c 38.71,-65.19 57.85,-139.3 55.42,-215.01 -2.45,-77.37 -27.05,-151.76 -71.14,-215.13 -30.42,-43.74 -68.87,-80.43 -114.27,-109.05 -63.59,-40.14 -136.8,-61.36 -211.71,-61.36 z"
         id="path950"
         inkscape:connector-curvature="0" /></clipPath><radialGradient
       fx="0"
       fy="0"
       cx="0"
       cy="0"
       r="1"
       gradientUnits="userSpaceOnUse"
       gradientTransform="matrix(586.535,434.664,434.664,-586.535,3963.52,7091.79)"
       spreadMethod="pad"
       id="radialGradient958"><stop
         style="stop-opacity:1;stop-color:#7bd3dd"
         offset="0"
         id="stop954" /><stop
         style="stop-opacity:1;stop-color:#2a409e"
         offset="1"
         id="stop956" /></radialGradient><clipPath
       clipPathUnits="userSpaceOnUse"
       id="clipPath968"><path
         d="m 4318.87,7090.71 c 18.69,12.9 35.52,28.07 50.16,45.2 16.42,19.25 29.93,40.79 40.15,64.05 20.46,46.52 26.93,97.5 18.73,147.43 -5.65,34.37 -18.03,66.89 -36.79,96.67 -14.13,22.39 -31.37,42.35 -51.25,59.32 -19.24,16.43 -40.79,29.94 -64.05,40.15 -32.94,14.5 -69.41,22.16 -105.45,22.16 -14.05,0 -28.17,-1.16 -41.97,-3.42 -34.36,-5.65 -66.89,-18.03 -96.67,-36.79 -22.38,-14.12 -42.34,-31.36 -59.33,-51.25 -16.42,-19.24 -29.93,-40.79 -40.15,-64.05 -20.46,-46.52 -26.93,-97.5 -18.73,-147.43 5.06,-30.78 15.52,-60.1 31.13,-87.27 l -116.07,-73.2 c -38.71,65.2 -57.85,139.3 -55.42,215.01 2.45,77.37 27.05,151.76 71.13,215.14 30.43,43.73 68.87,80.42 114.27,109.04 63.6,40.14 136.81,61.36 211.73,61.36 4.22,0 8.44,-0.07 12.65,-0.21 77.37,-2.44 151.76,-27.04 215.13,-71.13 43.74,-30.43 80.43,-68.87 109.05,-114.27 42.55,-67.42 63.7,-145.01 61.15,-224.37 -2.45,-77.37 -27.05,-151.76 -71.13,-215.13 -15.37,-22.09 -33.27,-42.83 -53.23,-61.66 l -2.94,-2.77 -10.81,-99.05 z"
         id="path966"
         inkscape:connector-curvature="0" /></clipPath><radialGradient
       fx="0"
       fy="0"
       cx="0"
       cy="0"
       r="1"
       gradientUnits="userSpaceOnUse"
       gradientTransform="matrix(596.122,441.769,441.769,-596.122,3972.98,7124.11)"
       spreadMethod="pad"
       id="radialGradient974"><stop
         style="stop-opacity:1;stop-color:#7bd3dd"
         offset="0"
         id="stop970" /><stop
         style="stop-opacity:1;stop-color:#2a409e"
         offset="1"
         id="stop972" /></radialGradient><clipPath
       clipPathUnits="userSpaceOnUse"
       id="clipPath1008"><path
         d="m 4040.7,9447.12 h -73.92 v -336.45 h 240.31 v 69.3 H 4040.7 Z"
         id="path1006"
         inkscape:connector-curvature="0" /></clipPath><radialGradient
       fx="0"
       fy="0"
       cx="0"
       cy="0"
       r="1"
       gradientUnits="userSpaceOnUse"
       gradientTransform="matrix(881.65,0,0,-881.65,4537.18,9155.89)"
       spreadMethod="pad"
       id="radialGradient1014"><stop
         style="stop-opacity:1;stop-color:#64cdf3"
         offset="0"
         id="stop1010" /><stop
         style="stop-opacity:1;stop-color:#2a409e"
         offset="1"
         id="stop1012" /></radialGradient><clipPath
       clipPathUnits="userSpaceOnUse"
       id="clipPath1024"><path
         d="m 4326.16,9436.82 c -7.61,6.66 -17.43,9.83 -27.15,9.84 -9.72,-0.01 -19.54,-3.18 -27.14,-9.84 -7.62,-6.63 -12.65,-16.94 -12.59,-29.55 -0.06,-12.61 4.97,-22.91 12.59,-29.55 7.6,-6.66 17.42,-9.83 27.14,-9.84 9.72,0.01 19.54,3.18 27.15,9.84 7.62,6.64 12.64,16.94 12.59,29.55 0.05,12.61 -4.97,22.92 -12.59,29.55 z"
         id="path1022"
         inkscape:connector-curvature="0" /></clipPath><radialGradient
       fx="0"
       fy="0"
       cx="0"
       cy="0"
       r="1"
       gradientUnits="userSpaceOnUse"
       gradientTransform="matrix(881.65,0,0,-881.65,4537.18,9155.89)"
       spreadMethod="pad"
       id="radialGradient1030"><stop
         style="stop-opacity:1;stop-color:#64cdf3"
         offset="0"
         id="stop1026" /><stop
         style="stop-opacity:1;stop-color:#2a409e"
         offset="1"
         id="stop1028" /></radialGradient><clipPath
       clipPathUnits="userSpaceOnUse"
       id="clipPath1040"><path
         d="m 4264.36,9333 v -222.33 h 69.3 v 228.79 h -69.3 z"
         id="path1038"
         inkscape:connector-curvature="0" /></clipPath><radialGradient
       fx="0"
       fy="0"
       cx="0"
       cy="0"
       r="1"
       gradientUnits="userSpaceOnUse"
       gradientTransform="matrix(881.65,0,0,-881.65,4537.18,9155.89)"
       spreadMethod="pad"
       id="radialGradient1046"><stop
         style="stop-opacity:1;stop-color:#64cdf3"
         offset="0"
         id="stop1042" /><stop
         style="stop-opacity:1;stop-color:#2a409e"
         offset="1"
         id="stop1044" /></radialGradient><clipPath
       clipPathUnits="userSpaceOnUse"
       id="clipPath1056"><path
         d="m 4539.26,9355.14 c -15.2,0.02 -29.18,-3.1 -42.25,-9.21 -9.66,-4.51 -18.79,-10.63 -27.71,-18.21 l -2.88,24.19 h -62.57 v -241.24 h 68.84 v 122.93 c -0.01,15.88 5.4,30.3 14.5,40.63 9.14,10.31 21.78,16.67 37.28,16.7 16.47,-0.07 28.03,-5.8 36.09,-15.22 8.01,-9.45 12.45,-23.15 12.45,-39.33 v -125.71 h 6.45 62.85 v 126.17 c 0.02,37.08 -11.18,66.78 -29.89,87.15 -18.69,20.4 -44.75,31.19 -73.16,31.15 z"
         id="path1054"
         inkscape:connector-curvature="0" /></clipPath><radialGradient
       fx="0"
       fy="0"
       cx="0"
       cy="0"
       r="1"
       gradientUnits="userSpaceOnUse"
       gradientTransform="matrix(881.65,0,0,-881.65,4537.18,9155.89)"
       spreadMethod="pad"
       id="radialGradient1062"><stop
         style="stop-opacity:1;stop-color:#64cdf3"
         offset="0"
         id="stop1058" /><stop
         style="stop-opacity:1;stop-color:#2a409e"
         offset="1"
         id="stop1060" /></radialGradient><clipPath
       clipPathUnits="userSpaceOnUse"
       id="clipPath1072"><path
         d="m 4914.45,9339.29 v 12.15 h -76.94 l -67.26,-80.21 v 175.43 h -6.46 -62.84 v -335.99 h 69.3 v 92.2 l 79.8,-92.2 h 77.35 v 13.12 l -103.61,114.01 z"
         id="path1070"
         inkscape:connector-curvature="0" /></clipPath><radialGradient
       fx="0"
       fy="0"
       cx="0"
       cy="0"
       r="1"
       gradientUnits="userSpaceOnUse"
       gradientTransform="matrix(881.65,0,0,-881.65,4537.18,9155.89)"
       spreadMethod="pad"
       id="radialGradient1078"><stop
         style="stop-opacity:1;stop-color:#64cdf3"
         offset="0"
         id="stop1074" /><stop
         style="stop-opacity:1;stop-color:#2a409e"
         offset="1"
         id="stop1076" /></radialGradient><clipPath
       clipPathUnits="userSpaceOnUse"
       id="clipPath1088"><path
         d="m 5161.74,9231.93 c -9.73,15.93 -25.31,25.29 -42.05,30.86 -16.78,5.6 -35.02,7.62 -51.37,8.68 -14.03,0.86 -23.81,3.42 -29.29,6.73 -2.77,1.66 -4.46,3.38 -5.54,5.2 -1.07,1.82 -1.64,3.85 -1.65,6.59 0.02,2.47 0.59,4.33 1.7,6.08 1.65,2.58 4.95,5.15 10.58,7.07 5.58,1.91 13.31,3.05 22.86,3.04 10.36,0 19.68,-1.21 28.19,-4.11 8.52,-2.9 16.3,-7.45 23.76,-14.47 l 4.95,-4.67 4.4,5.18 35.55,41.83 -4.78,4.19 c -13.73,12.06 -27.9,20.1 -43.19,24.98 -15.29,4.9 -31.6,6.67 -49.8,6.67 -21.74,-0.03 -46.71,-4.73 -66.97,-16.74 -10.11,-6.02 -19.05,-13.94 -25.46,-24.11 -6.42,-10.15 -10.18,-22.5 -10.17,-36.79 -0.01,-14 3.53,-26.01 9.67,-35.84 9.22,-14.8 23.88,-24.46 40.01,-30.75 16.17,-6.29 34.02,-9.31 50.58,-10.57 h 0.04 0.07 c 15.8,-0.86 26.48,-3.05 32.16,-6.09 2.86,-1.52 4.44,-3.05 5.46,-4.71 1,-1.68 1.58,-3.73 1.6,-6.79 -0.02,-2.81 -0.78,-5.26 -2.3,-7.67 -2.26,-3.59 -6.44,-6.97 -11.95,-9.36 -5.49,-2.4 -12.22,-3.8 -19.16,-3.8 l -1.14,0.01 c -11.67,0.2 -26.74,3.5 -40.53,8.92 -13.81,5.38 -26.4,13 -33.37,20.84 l -5.47,6.09 -35.37,-51.29 3.64,-3.8 c 17.31,-18.05 35.67,-28.87 54.29,-34.99 18.61,-6.15 37.38,-7.66 55.75,-7.67 33.7,0 59.79,8.98 77.57,23.87 17.8,14.85 26.91,35.61 26.87,57.46 0.01,16.1 -3.67,29.36 -10.14,39.93 z"
         id="path1086"
         inkscape:connector-curvature="0" /></clipPath><radialGradient
       fx="0"
       fy="0"
       cx="0"
       cy="0"
       r="1"
       gradientUnits="userSpaceOnUse"
       gradientTransform="matrix(881.65,0,0,-881.65,4537.18,9155.89)"
       spreadMethod="pad"
       id="radialGradient1094"><stop
         style="stop-opacity:1;stop-color:#64cdf3"
         offset="0"
         id="stop1090" /><stop
         style="stop-opacity:1;stop-color:#2a409e"
         offset="1"
         id="stop1092" /></radialGradient><clipPath
       clipPathUnits="userSpaceOnUse"
       id="clipPath1108"><path
         d="m 3840.63,9584.89 h -149.98 c -111.58,0 -202.03,90.45 -202.03,202.03 v 634.88 c 0,111.6 90.45,202.1 202.03,202.1 h 634.91 c 111.58,0 202.03,-90.5 202.03,-202.1 v -339.9 l -0.64,1.1 -1.38,2 -0.88,1.5 -1.39,2 -0.87,1.5 -1.38,1.9 -0.88,1.6 -1.4,1.9 -0.87,1.5 -1.38,2 -0.88,1.5 -1.39,2 -0.87,1.5 -1.38,2 -0.88,1.5 -1.39,2 -0.87,1.5 -1.39,2 -0.88,1.5 -1.39,1.9 -0.87,1.5 -1.39,2 -0.87,1.5 -1.39,2 -0.87,1.5 -1.39,2 -0.88,1.5 -1.38,2 -0.88,1.5 -1.38,1.9 -0.88,1.6 -1.39,1.9 -0.87,1.5 -1.39,2 -0.88,1.5 -1.39,2 -0.87,1.5 -1.39,2 -0.87,1.5 -1.39,2 -0.87,1.5 -1.39,1.9 -0.87,1.6 -1.39,1.9 -0.88,1.5 -1.38,2 -0.88,1.5 -1.39,2 -0.87,1.5 -1.39,2 -0.88,1.5 -1.38,2 -0.88,1.5 -1.39,1.9 -0.87,1.6 -1.38,1.9 -0.88,1.5 -1.39,2 -0.87,1.5 -1.39,2 -0.87,1.5 -1.4,2 -0.87,1.5 -1.38,1.9 -0.88,1.6 -1.39,1.9 -0.87,1.5 -1.38,2 -0.89,1.5 -1.39,2 -0.87,1.5 -1.38,2 -0.88,1.5 -1.39,2 -0.87,1.5 -1.39,1.9 -0.87,1.6 -1.39,1.9 -0.88,1.5 -1.38,2 -0.88,1.5 -1.39,2 -0.87,1.5 -1.39,2 -0.87,1.5 -1.39,2 -0.87,1.5 -1.39,1.9 -0.88,1.6 -1.38,1.9 -0.88,1.5 -1.39,2 -0.87,1.5 -1.39,2 -0.87,1.5 -1.39,2 -0.88,1.5 -1.39,2 -0.87,1.5 -1.38,1.9 -0.88,1.6 -1.39,1.9 -0.87,1.5 -1.39,2 -0.87,1.5 -1.39,2 -0.88,1.5 -1.39,2 -0.87,1.5 -1.39,2 -0.87,1.5 -1.39,1.9 -0.88,1.6 -1.38,1.9 -0.88,1.5 -1.39,2 -0.87,1.5 -1.38,2 -0.88,1.5 -1.39,2 -0.87,1.5 -1.39,1.9 -0.87,1.6 -1.4,1.9 -0.87,1.5 -1.38,2 -0.88,1.5 -1.39,2 -0.87,1.5 -1.39,2 -0.88,1.5 -1.39,2 -0.87,1.5 -1.38,1.9 -0.88,1.6 -1.39,1.9 -0.87,1.5 -1.39,2 -0.87,1.5 -1.39,2 -0.88,1.5 -1.39,2 -0.87,1.5 c -20.57,32.6 -46.96,59.8 -76.9,80.6 -44.93,31.2 -97.73,48.4 -151.69,50.1 -2.97,0.1 -5.95,0.2 -8.92,0.2 -51.09,0 -103.05,-14.1 -149.32,-43.3 -32.63,-20.6 -59.76,-47 -80.58,-76.9 -31.25,-44.9 -48.45,-97.7 -50.16,-151.7 -3.07,-80.2 42.48,-158.2 42.48,-158.2 -93.78,132.4 -187.32,287.5 -187.32,287.5 l -9.46,-86.7 c -14.13,-13.3 -26.71,-27.9 -37.54,-43.5 -31.25,-44.9 -48.45,-97.7 -50.16,-151.7 -1.73,-53.93 12.22,-109.27 43.12,-158.23 l 1.38,-1.97 0.88,-1.52 1.4,-1.98 0.86,-1.5 1.39,-1.96 0.88,-1.52 1.39,-1.98 0.87,-1.5 1.38,-1.97 0.88,-1.52 1.4,-1.98 0.87,-1.5 1.38,-1.96 0.88,-1.52 1.39,-1.98 0.87,-1.5 1.39,-1.98 0.87,-1.51 1.39,-1.97 0.87,-1.51 1.39,-1.97 0.88,-1.51 1.39,-1.98 0.87,-1.5 1.39,-1.98 0.87,-1.51 1.39,-1.97 0.87,-1.51 1.39,-1.97 0.88,-1.51 1.38,-1.97 0.88,-1.51 1.38,-1.98 0.88,-1.51 1.38,-1.97 0.88,-1.51 1.39,-1.98 0.88,-1.5 1.38,-1.97 0.88,-1.52 1.39,-1.98 0.87,-1.5 1.39,-1.97 0.87,-1.51 1.39,-1.98 0.87,-1.5 1.39,-1.97 0.88,-1.52 1.38,-1.97 0.88,-1.51 1.39,-1.97 0.87,-1.51 1.39,-1.98 0.87,-1.51 1.39,-1.97 0.88,-1.51 1.38,-1.97 0.88,-1.51 1.38,-1.97 0.88,-1.52 1.39,-1.97 0.87,-1.51 1.39,-1.97 0.87,-1.51 1.4,-1.98 0.87,-1.5 1.38,-1.97 0.88,-1.52 1.39,-1.98 0.87,-1.5 1.38,-1.96 0.88,-1.52 1.4,-1.98 0.87,-1.5 1.38,-1.97 0.88,-1.52 1.39,-1.98 0.87,-1.5 1.38,-1.96 0.88,-1.52 1.4,-1.98 0.86,-1.5 1.39,-1.98 0.88,-1.51 1.39,-1.97 0.87,-1.51 1.39,-1.97 0.87,-1.51 1.39,-1.98 0.87,-1.5 1.39,-1.98 0.88,-1.51 1.38,-1.97 0.88,-1.51 1.38,-1.97 0.88,-1.51 1.39,-1.97 0.87,-1.52 1.39,-1.98 0.88,-1.5 1.38,-1.96 0.88,-1.52 1.39,-1.99 0.87,-1.49 1.39,-1.98 0.87,-1.51 1.39,-1.97 0.87,-1.51 1.39,-1.97 0.88,-1.51 1.38,-1.98 0.88,-1.51 1.39,-1.97 0.87,-1.51 1.39,-1.97 0.87,-1.51 1.39,-1.97 0.88,-1.52 1.38,-1.97 0.88,-1.51 1.38,-1.97 0.88,-1.51 1.39,-1.98 0.87,-1.5 1.39,-1.97 0.87,-1.52 1.4,-1.98 0.87,-1.5 1.38,-1.96 0.88,-1.52 1.39,-1.98 0.87,-1.5 1.38,-1.97 0.88,-1.52 1.4,-1.98 0.87,-1.5 1.38,-1.96 0.88,-1.52 1.39,-1.98 0.87,-1.5 1.39,-1.98 0.87,-1.51 1.39,-1.97 0.88,-1.51 1.38,-1.97 0.88,-1.51 1.39,-1.98 0.87,-1.51 1.39,-1.97 0.87,-1.51 1.39,-1.97 0.87,-1.51 1.39,-1.97 0.88,-1.52 1.38,-1.97 0.88,-1.51 1.39,-1.97 0.87,-1.51 1.39,-1.96 0.88,-1.52 1.39,-1.98 0.87,-1.51 1.38,-1.97 0.88,-1.51 1.39,-1.97 0.87,-1.51 1.39,-1.97 0.87,-1.52 0.72,-1.02"
         id="path1106"
         inkscape:connector-curvature="0" /></clipPath><radialGradient
       fx="0"
       fy="0"
       cx="0"
       cy="0"
       r="1"
       gradientUnits="userSpaceOnUse"
       gradientTransform="matrix(1010.21,0,0,-1010.21,4023.23,9983.06)"
       spreadMethod="pad"
       id="radialGradient1114"><stop
         style="stop-opacity:1;stop-color:#7bd3dd"
         offset="0"
         id="stop1110" /><stop
         style="stop-opacity:1;stop-color:#2a409e"
         offset="1"
         id="stop1112" /></radialGradient><clipPath
       clipPathUnits="userSpaceOnUse"
       id="clipPath1124"><path
         d="m 4527.59,9786.92 c 0,-111.58 -90.45,-202.03 -202.03,-202.03 h -634.91 c -111.58,0 -202.03,90.45 -202.03,202.03 v 634.88 c 0,111.6 90.45,202.1 202.03,202.1 h 634.91 c 111.58,0 202.03,-90.5 202.03,-202.1 v -634.88"
         id="path1122"
         inkscape:connector-curvature="0" /></clipPath><clipPath
       clipPathUnits="userSpaceOnUse"
       id="clipPath1130"><path
         d="m 4325.56,9584.89 h -484.93 l -0.72,1.02 -0.87,1.52 -1.39,1.97 -0.87,1.51 -1.39,1.97 -0.88,1.51 -1.38,1.97 -0.87,1.51 -1.39,1.98 -0.88,1.52 -1.39,1.96 -0.87,1.51 -1.39,1.97 -0.88,1.51 -1.38,1.97 -0.88,1.52 -1.39,1.97 -0.87,1.51 -1.39,1.97 -0.87,1.51 -1.39,1.97 -0.87,1.51 -1.39,1.98 -0.88,1.51 -1.38,1.97 -0.88,1.51 -1.39,1.97 -0.87,1.51 -1.39,1.98 -0.87,1.5 -1.39,1.98 -0.88,1.52 -1.38,1.96 -0.87,1.5 -1.4,1.98 -0.88,1.52 -1.38,1.97 -0.87,1.5 -1.39,1.98 -0.88,1.52 -1.38,1.96 -0.87,1.5 -1.4,1.98 -0.87,1.52 -1.39,1.97 -0.87,1.5 -1.39,1.98 -0.88,1.51 -1.38,1.97 -0.88,1.51 -1.38,1.97 -0.88,1.52 -1.39,1.97 -0.87,1.51 -1.39,1.97 -0.87,1.51 -1.39,1.97 -0.88,1.51 -1.38,1.98 -0.88,1.51 -1.39,1.97 -0.87,1.51 -1.39,1.97 -0.87,1.51 -1.39,1.98 -0.87,1.49 -1.39,1.99 -0.88,1.52 -1.38,1.96 -0.88,1.5 -1.39,1.98 -0.87,1.52 -1.39,1.97 -0.88,1.51 -1.38,1.97 -0.88,1.51 -1.38,1.97 -0.88,1.51 -1.39,1.98 -0.87,1.5 -1.39,1.98 -0.87,1.51 -1.39,1.97 -0.87,1.51 -1.39,1.97 -0.88,1.51 -1.39,1.98 -0.86,1.5 -1.4,1.98 -0.88,1.52 -1.38,1.96 -0.87,1.5 -1.39,1.98 -0.88,1.52 -1.38,1.97 -0.87,1.5 -1.4,1.98 -0.88,1.52 -1.38,1.96 -0.87,1.5 -1.39,1.98 -0.88,1.52 -1.38,1.97 -0.87,1.5 -1.4,1.98 -0.87,1.51 -1.39,1.97 -0.87,1.51 -1.39,1.97 -0.88,1.52 -1.38,1.97 -0.88,1.51 -1.38,1.97 -0.88,1.51 -1.39,1.97 -0.87,1.51 -1.39,1.98 -0.87,1.51 -1.39,1.97 -0.88,1.51 -1.38,1.97 -0.88,1.52 -1.39,1.97 -0.87,1.5 -1.39,1.98 -0.87,1.51 -1.39,1.97 -0.87,1.5 -1.39,1.98 -0.88,1.52 -1.38,1.97 -0.88,1.5 -1.39,1.98 -0.88,1.51 -1.38,1.97 -0.88,1.51 -1.38,1.98 -0.88,1.51 -1.38,1.97 -0.88,1.51 -1.39,1.97 -0.87,1.51 -1.39,1.97 -0.87,1.51 -1.39,1.98 -0.87,1.5 -1.39,1.98 -0.88,1.51 -1.39,1.97 -0.87,1.51 -1.39,1.97 -0.87,1.51 -1.39,1.98 -0.87,1.5 -1.39,1.98 -0.88,1.52 -1.38,1.96 -0.87,1.5 -1.4,1.98 -0.88,1.52 -1.38,1.97 -0.87,1.5 -1.39,1.98 -0.88,1.52 -1.39,1.96 -0.86,1.5 -1.4,1.98 -0.88,1.52 -1.38,1.97 c -30.9,48.96 -44.85,104.3 -43.12,158.23 1.71,54 18.91,106.8 50.16,151.7 10.83,15.6 23.41,30.2 37.54,43.5 l 9.46,86.7 c 0,0 93.54,-155.1 187.32,-287.5 0,0 -45.55,78 -42.48,158.2 1.71,54 18.91,106.8 50.16,151.7 20.82,29.9 47.95,56.3 80.58,76.9 46.27,29.2 98.23,43.3 149.32,43.3 2.97,0 5.95,-0.1 8.92,-0.2 53.96,-1.7 106.76,-18.9 151.69,-50.1 29.94,-20.8 56.33,-48 76.9,-80.6 l 0.87,-1.5 1.39,-2 0.88,-1.5 1.39,-2 0.87,-1.5 1.39,-2 0.87,-1.5 1.39,-1.9 0.88,-1.6 1.38,-1.9 0.87,-1.5 1.39,-2 0.88,-1.5 1.39,-2 0.87,-1.5 1.39,-2 0.88,-1.5 1.38,-2 0.87,-1.5 1.4,-1.9 0.87,-1.6 1.39,-1.9 0.87,-1.5 1.39,-2 0.88,-1.5 1.38,-2 0.87,-1.5 1.39,-2 0.88,-1.5 1.38,-1.9 0.88,-1.6 1.39,-1.9 0.87,-1.5 1.39,-2 0.87,-1.5 1.39,-2 0.88,-1.5 1.39,-2 0.87,-1.5 1.39,-2 0.87,-1.5 1.39,-1.9 0.88,-1.6 1.38,-1.9 0.87,-1.5 1.39,-2 0.88,-1.5 1.39,-2 0.87,-1.5 1.39,-2 0.87,-1.5 1.39,-2 0.88,-1.5 1.38,-1.9 0.88,-1.6 1.39,-1.9 0.87,-1.5 1.39,-2 0.87,-1.5 1.39,-2 0.87,-1.5 1.39,-2 0.88,-1.5 1.38,-2 0.88,-1.5 1.39,-1.9 0.87,-1.6 1.39,-1.9 0.87,-1.5 1.39,-2 0.88,-1.5 1.38,-2 0.87,-1.5 1.39,-2 0.89,-1.5 1.38,-2 0.87,-1.5 1.39,-1.9 0.88,-1.6 1.38,-1.9 0.87,-1.5 1.4,-2 0.87,-1.5 1.39,-2 0.87,-1.5 1.39,-2 0.88,-1.5 1.38,-1.9 0.87,-1.6 1.39,-1.9 0.88,-1.5 1.38,-2 0.88,-1.5 1.39,-2 0.87,-1.5 1.39,-2 0.88,-1.5 1.38,-2 0.88,-1.5 1.39,-1.9 0.87,-1.6 1.39,-1.9 0.87,-1.5 1.39,-2 0.87,-1.5 1.39,-2 0.87,-1.5 1.39,-2 0.88,-1.5 1.39,-2 0.87,-1.5 1.39,-1.9 0.88,-1.6 1.38,-1.9 0.88,-1.5 1.38,-2 0.88,-1.5 1.39,-2 0.87,-1.5 1.39,-2 0.87,-1.5 1.39,-2 0.87,-1.5 1.39,-1.9 0.88,-1.5 1.39,-2 0.87,-1.5 1.39,-2 0.88,-1.5 1.38,-2 0.87,-1.5 1.39,-2 0.88,-1.5 1.38,-2 0.87,-1.5 1.4,-1.9 0.88,-1.6 1.38,-1.9 0.87,-1.5 1.39,-2 0.88,-1.5 1.38,-2 0.64,-1.1 v -294.98 c 0,-111.58 -90.45,-202.03 -202.03,-202.03"
         id="path1128"
         inkscape:connector-curvature="0" /></clipPath><radialGradient
       fx="0"
       fy="0"
       cx="0"
       cy="0"
       r="1"
       gradientUnits="userSpaceOnUse"
       gradientTransform="matrix(1010.21,0,0,-1010.21,4023.23,9983.06)"
       spreadMethod="pad"
       id="radialGradient1136"><stop
         style="stop-opacity:1;stop-color:#4bc3cf"
         offset="0"
         id="stop1132" /><stop
         style="stop-opacity:1;stop-color:#2a3b90"
         offset="1"
         id="stop1134" /></radialGradient></defs><sodipodi:namedview
     pagecolor="#ffffff"
     bordercolor="#666666"
     borderopacity="1"
     objecttolerance="10"
     gridtolerance="10"
     guidetolerance="10"
     inkscape:pageopacity="0"
     inkscape:pageshadow="2"
     inkscape:window-width="1680"
     inkscape:window-height="1006"
     id="namedview846"
     showgrid="false"
     inkscape:zoom="0.54317565"
     inkscape:cx="1049.5146"
     inkscape:cy="384.8235"
     inkscape:window-x="0"
     inkscape:window-y="0"
     inkscape:window-maximized="0"
     inkscape:current-layer="g852" /><g
     id="g852"
     inkscape:groupmode="layer"
     inkscape:label="ink_ext_XXXXXX"
     transform="matrix(1.3333333,0,0,-1.3333333,0,500.00008)"><g
       id="g1158"
       transform="matrix(1.0175668,0,0,1.0175668,-9.9707922,1.5998274)"><g
         transform="matrix(0.79364391,0,0,0.79364391,34.155964,42.30976)"
         id="g1138"><path
           inkscape:connector-curvature="0"
           id="path886"
           style="fill:#100f0d;fill-opacity:1;fill-rule:nonzero;stroke:none;stroke-width:0.27479282"
           d="m 452.16381,220.91576 c -6.5126,0 -11.87657,-0.21984 -16.0809,-0.63202 V 172.2775 h 12.41516 c 12.34646,0 21.84606,1.70372 28.49605,5.1661 6.6445,3.46239 9.97225,10.00244 9.97225,19.64766 0,4.61651 -0.88483,8.49108 -2.64626,11.59624 -1.76417,3.13263 -4.20708,5.57828 -7.32599,7.33695 -3.12439,1.75867 -6.82036,3.02272 -11.0934,3.76466 -4.27303,0.74194 -8.85384,1.12665 -13.73691,1.12665 z m -1.83287,22.17574 c 20.48583,0 36.19301,-3.73717 47.11605,-11.18405 10.92028,-7.47435 16.38592,-19.15303 16.38592,-35.00855 0,-8.29873 -1.45916,-15.36089 -4.37746,-21.26893 -2.9183,-5.90803 -7.15836,-10.7169 -12.72018,-14.45408 -5.56456,-3.73717 -12.34646,-6.4851 -20.35393,-8.24377 -8.00748,-1.75867 -17.16634,-2.63801 -27.47383,-2.63801 h -12.8246 V 100.61165 H 410.4392 v 139.01747 c 5.96851,1.34648 12.58278,2.28078 19.84282,2.74792 7.25729,0.46715 13.94301,0.71446 20.04892,0.71446" /><path
           inkscape:connector-curvature="0"
           id="path888"
           style="fill:#100f0d;fill-opacity:1;fill-rule:nonzero;stroke:none;stroke-width:0.27479282"
           d="m 593.20419,164.336 c 0,3.37995 -0.47814,6.59502 -1.42343,9.64522 -0.95079,3.07767 -2.34124,5.71568 -4.17411,7.9415 -1.83287,2.2533 -4.06969,4.01197 -6.71595,5.30349 -2.64626,1.29153 -5.80089,1.92355 -9.46388,1.92355 -3.80039,0 -7.12264,-0.71446 -9.97225,-2.14338 -2.8496,-1.40144 -5.25954,-3.27003 -7.22706,-5.57829 -1.96752,-2.30825 -3.49262,-4.97374 -4.57805,-7.9415 -1.08818,-2.99524 -1.83287,-6.04543 -2.23957,-9.15059 z m -71.438,-10.99169 c 0,9.34294 1.39045,17.55923 4.17136,24.6214 2.78091,7.06216 6.47962,12.91524 11.0934,17.58671 4.61103,4.69895 9.90355,8.21629 15.87481,10.60699 5.96851,2.36321 12.07441,3.54482 18.31771,3.54482 14.65473,0 26.08338,-4.53408 34.2942,-13.6297 8.20807,-9.09563 12.31349,-22.67038 12.31349,-40.69676 0,-1.37396 -0.033,-2.88532 -0.10168,-4.58903 -0.0714,-1.70371 -0.17037,-3.21507 -0.30502,-4.58903 h -70.21792 c 0.67874,-8.54605 3.69597,-15.14106 9.05719,-19.84001 5.35847,-4.67147 13.12962,-7.00721 23.30521,-7.00721 5.96851,0 11.42866,0.52211 16.38318,1.62128 4.95177,1.07169 8.85384,2.22581 11.70344,3.46238 l 3.2563,-20.14228 c -1.35748,-0.68698 -3.22607,-1.40144 -5.59754,-2.14338 -2.37421,-0.74194 -5.08642,-1.42892 -8.13937,-2.03347 -3.05296,-0.60454 -6.34498,-1.126645 -9.87332,-1.538834 -3.5311,-0.384709 -7.12264,-0.604543 -10.78564,-0.604543 -9.3622,0 -17.50433,1.401441 -24.42362,4.176847 -6.9193,2.7754 -12.61851,6.64997 -17.09764,11.59624 -4.47638,4.94626 -7.80412,10.79934 -9.97224,17.50427 -2.17362,6.70494 -3.2563,14.06937 -3.2563,22.09331" /><path
           inkscape:connector-curvature="0"
           id="path890"
           style="fill:#100f0d;fill-opacity:1;fill-rule:nonzero;stroke:none;stroke-width:0.27479282"
           d="m 712.67604,164.336 c 0,3.37995 -0.47814,6.59502 -1.42343,9.64522 -0.95078,3.07767 -2.34124,5.71568 -4.17411,7.9415 -1.83287,2.2533 -4.06968,4.01197 -6.71594,5.30349 -2.64626,1.29153 -5.80089,1.92355 -9.46388,1.92355 -3.80039,0 -7.12264,-0.71446 -9.97225,-2.14338 -2.8496,-1.40144 -5.25954,-3.27003 -7.22706,-5.57829 -1.96752,-2.30825 -3.49537,-4.97374 -4.57806,-7.9415 -1.08818,-2.99524 -1.83287,-6.04543 -2.23956,-9.15059 z m -71.438,-10.99169 c 0,9.34294 1.38771,17.55923 4.17137,24.6214 2.77815,7.06216 6.47962,12.91524 11.0934,17.58671 4.61103,4.69895 9.90355,8.21629 15.8748,10.60699 5.96851,2.36321 12.07442,3.54482 18.31772,3.54482 14.65472,0 26.08338,-4.53408 34.2942,-13.6297 8.20807,-9.09563 12.31348,-22.67038 12.31348,-40.69676 0,-1.37396 -0.0357,-2.88532 -0.10167,-4.58903 -0.0714,-1.70371 -0.17037,-3.21507 -0.30502,-4.58903 H 666.6784 c 0.67599,-8.54605 3.69597,-15.14106 9.05719,-19.84001 5.35847,-4.67147 13.12687,-7.00721 23.30521,-7.00721 5.96851,0 11.42865,0.52211 16.38317,1.62128 4.95178,1.07169 8.85384,2.22581 11.70345,3.46238 l 3.2563,-20.14228 c -1.36023,-0.68698 -3.22607,-1.40144 -5.59754,-2.14338 -2.37696,-0.74194 -5.08917,-1.42892 -8.14212,-2.03347 -3.05296,-0.60454 -6.34223,-1.126645 -9.87058,-1.538834 -3.53109,-0.384709 -7.12539,-0.604543 -10.78563,-0.604543 -9.36221,0 -17.50433,1.401441 -24.42362,4.176847 -6.92205,2.7754 -12.62126,6.64997 -17.09764,11.59624 -4.47913,4.94626 -7.80413,10.79934 -9.97225,17.50427 -2.17361,6.70494 -3.2563,14.06937 -3.2563,22.09331" /><path
           inkscape:connector-curvature="0"
           id="path892"
           style="fill:#100f0d;fill-opacity:1;fill-rule:nonzero;stroke:none;stroke-width:0.27479282"
           d="m 824.00578,184.89048 c -2.03622,0.6595 -4.85011,1.37396 -8.4444,2.1159 -3.59704,0.76942 -7.77115,1.12665 -12.51683,1.12665 -2.71771,0 -5.59754,-0.2748 -8.65049,-0.7969 -3.05296,-0.54959 -5.19085,-1.01673 -6.41093,-1.42892 v -85.29556 h -24.62972 v 101.37091 c 4.74843,1.75867 10.68671,3.43491 17.8121,4.97374 7.12264,1.56632 15.02569,2.33574 23.70916,2.33574 1.62678,0 3.52835,-0.0824 5.69921,-0.30227 2.17087,-0.19236 4.33899,-0.46715 6.5126,-0.7969 2.17087,-0.35723 4.27304,-0.74194 6.30925,-1.23657 2.03347,-0.46714 3.663,-0.90681 4.88583,-1.319 l -4.27578,-20.74682" /></g><g
         transform="matrix(0.79364391,0,0,0.79364391,34.155964,42.30976)"
         id="g1145"><path
           inkscape:connector-curvature="0"
           id="path894"
           style="fill:#ed105e;fill-opacity:1;fill-rule:nonzero;stroke:none;stroke-width:0.27479282"
           d="M 950.39693,122.81487 V 100.61165 H 861.25125 V 241.66258 H 886.8977 V 122.81487 h 63.49923" /><path
           inkscape:connector-curvature="0"
           id="path896"
           style="fill:#ed105e;fill-opacity:1;fill-rule:nonzero;stroke:none;stroke-width:0.27479282"
           d="m 1000.0603,100.61165 h -24.62971 v 106.45457 h 24.62971 z m 2.6435,137.58855 c 0,-4.61651 -1.4949,-8.27125 -4.47911,-10.9917 -2.98425,-2.72044 -6.50985,-4.06692 -10.58229,-4.06692 -4.20708,0 -7.80413,1.34648 -10.78563,4.06692 -2.98701,2.72045 -4.47913,6.37519 -4.47913,10.9917 0,4.75391 1.49212,8.49108 4.47913,11.21153 2.9815,2.69296 6.57855,4.06693 10.78563,4.06693 4.07244,0 7.59804,-1.37397 10.58229,-4.06693 2.98421,-2.72045 4.47911,-6.45762 4.47911,-11.21153" /><path
           inkscape:connector-curvature="0"
           id="path898"
           style="fill:#ed105e;fill-opacity:1;fill-rule:nonzero;stroke:none;stroke-width:0.27479282"
           d="m 1034.6568,203.60384 c 4.7484,1.34648 10.9203,2.638 18.521,3.87457 7.5981,1.20909 16.0067,1.81363 25.2371,1.81363 8.6807,0 15.9435,-1.18161 21.7801,-3.54482 5.8311,-2.3907 10.4806,-5.6882 13.9402,-9.97497 3.4624,-4.28676 5.9026,-9.42537 7.326,-15.47081 1.4262,-6.04543 2.1379,-12.64045 2.1379,-19.84001 v -59.84978 h -24.627 v 55.97521 c 0,5.71568 -0.3737,10.55203 -1.1211,14.564 -0.7447,3.98449 -1.9675,7.25452 -3.663,9.75513 -1.6955,2.52809 -4.0038,4.34172 -6.9193,5.49584 -2.9183,1.15413 -6.4796,1.7312 -10.684,1.7312 -3.1244,0 -6.3807,-0.19236 -9.7716,-0.60455 -3.391,-0.41219 -5.8998,-0.74194 -7.5294,-1.01673 v -85.9001 h -24.6269 v 102.99219" /><path
           inkscape:connector-curvature="0"
           id="path900"
           style="fill:#ed105e;fill-opacity:1;fill-rule:nonzero;stroke:none;stroke-width:0.27479282"
           d="m 1175.0899,165.54509 c 3.1189,3.27003 6.4411,6.75989 9.9722,10.49707 3.5256,3.7097 6.988,7.44687 10.3817,11.18405 3.3882,3.73718 6.6143,7.33696 9.6672,10.77186 3.053,3.46239 5.6635,6.4851 7.8371,9.06815 h 29.1034 c -6.7709,-7.61175 -13.9128,-15.47081 -21.4229,-23.60466 -7.5156,-8.13386 -15.0614,-16.07536 -22.643,-23.8245 4.0615,-3.37995 8.3263,-7.50184 12.7944,-12.3107 4.4681,-4.80887 8.8016,-9.94749 12.995,-15.3609 4.1988,-5.44089 8.1229,-10.8543 11.7804,-16.29519 3.6575,-5.41341 6.7049,-10.44211 9.1396,-15.05862 h -28.4933 c -2.4429,4.20432 -5.2568,8.62848 -8.4444,13.24499 -3.1904,4.61651 -6.6143,9.09563 -10.28,13.43735 -3.663,4.34172 -7.3947,8.43613 -11.1924,12.3107 -3.8031,3.84709 -7.532,7.1446 -11.195,9.86505 v -48.85809 h -24.627 v 153.88374 l 24.627,4.06693 v -93.01723" /><path
           inkscape:connector-curvature="0"
           id="path902"
           style="fill:#ed105e;fill-opacity:1;fill-rule:nonzero;stroke:none;stroke-width:0.27479282"
           d="m 1295.7818,118.33576 c 6.5126,0 11.261,0.76942 14.248,2.33573 2.9815,1.56632 4.4764,4.23181 4.4764,8.05142 0,3.51734 -1.5965,6.43014 -4.7814,8.7384 -3.1903,2.30826 -8.4471,4.80887 -15.7731,7.52931 -4.4792,1.62128 -8.5873,3.35247 -12.3135,5.19358 -3.7344,1.81363 -6.9578,3.95701 -9.6672,6.40266 -2.7177,2.44565 -4.8556,5.38593 -6.4137,8.84831 -1.5608,3.46239 -2.3385,7.72167 -2.3385,12.72289 0,9.78261 3.5916,17.4768 10.7856,23.11004 7.1914,5.63325 16.9575,8.43613 29.3067,8.43613 6.2406,0 12.2118,-0.57707 17.9111,-1.73119 5.6992,-1.15413 9.9722,-2.2533 12.8246,-3.35247 l -4.4792,-19.94993 c -2.7149,1.23657 -6.1746,2.33574 -10.3789,3.37995 -4.2098,1.01673 -9.0929,1.51136 -14.6547,1.51136 -5.0205,0 -9.0902,-0.85186 -12.2118,-2.55557 -3.1217,-1.67624 -4.6825,-4.28676 -4.6825,-7.83159 0,-1.75867 0.305,-3.32498 0.915,-4.67147 0.6128,-1.34648 1.6625,-2.61052 3.1574,-3.76465 1.4894,-1.15413 3.4597,-2.30826 5.8998,-3.46239 2.4457,-1.15412 5.4272,-2.33573 8.9583,-3.5723 5.8311,-2.17086 10.7856,-4.28676 14.8581,-6.40266 4.0696,-2.08842 7.4276,-4.47912 10.0739,-7.11712 2.6462,-2.63801 4.578,-5.66073 5.7981,-9.06815 1.2228,-3.37995 1.8329,-7.44688 1.8329,-12.20078 0,-10.16732 -3.7647,-17.88899 -11.2968,-23.11004 -7.5293,-5.22106 -18.2847,-7.831587 -32.2579,-7.831587 -9.3623,0 -16.8943,0.796898 -22.5908,2.335737 -5.6992,1.56631 -9.7029,2.83036 -12.0112,3.76465 l 4.2758,20.55447 c 3.6657,-1.48387 8.0404,-2.91279 13.1268,-4.25928 5.0892,-1.37396 10.8901,-2.03346 17.4027,-2.03346" /></g></g><g
       id="g1165"
       transform="translate(6.7500055,9.2320835)"><path
         d="M 134.57976,262.95899 V 224.5705 h 64.31261 V 76.072689 H 67.939655 L 50.40235,68.378502 V 224.5705 h 34.126573 v 38.38849 H 11.999995 V 9.5179723 L 76.004837,37.684192 H 237.29473 V 262.95899 H 134.57976"
         style="fill:#ed105e;fill-opacity:1;fill-rule:nonzero;stroke:none;stroke-width:0.27479282"
         id="path904"
         inkscape:connector-curvature="0" /><path
         d="M 96.177408,347.01799 V 121.71571 h 91.143422 v 38.41597 H 134.57976 V 308.62949 H 283.06979 V 152.41002 l -17.53731,7.72166 H 237.29473 V 121.71571 H 257.4673 L 321.47214,93.576964 V 347.01799 H 96.177408"
         style="fill:#f8b40b;fill-opacity:1;fill-rule:nonzero;stroke:none;stroke-width:0.27479282"
         id="path906"
         inkscape:connector-curvature="0" /><path
         d="m 134.66495,224.5705 h 11.64865 v 38.40223 h -11.64865 z"
         style="fill:#d21550;fill-opacity:1;fill-rule:nonzero;stroke:none;stroke-width:0.27479282"
         id="path908"
         inkscape:connector-curvature="0" /><path
         d="m 237.29473,160.13168 h 11.64865 v 0.033 h -11.64865 z"
         style="fill:#d3d2d0;fill-opacity:1;fill-rule:nonzero;stroke:none;stroke-width:0.27479282"
         id="path910"
         inkscape:connector-curvature="0" /><path
         d="m 237.29473,121.77066 h 11.64865 v 38.36679 h -11.64865 z"
         style="fill:#c99619;fill-opacity:1;fill-rule:nonzero;stroke:none;stroke-width:0.27479282"
         id="path912"
         inkscape:connector-curvature="0" /></g></g></svg>