<?xml version="1.0" encoding="UTF-8" standalone="no"?>
<!-- Created with Inkscape (http://www.inkscape.org/) -->

<svg
   xmlns:dc="http://purl.org/dc/elements/1.1/"
   xmlns:cc="http://creativecommons.org/ns#"
   xmlns:rdf="http://www.w3.org/1999/02/22-rdf-syntax-ns#"
   xmlns:svg="http://www.w3.org/2000/svg"
   xmlns="http://www.w3.org/2000/svg"
   xmlns:sodipodi="http://sodipodi.sourceforge.net/DTD/sodipodi-0.dtd"
   xmlns:inkscape="http://www.inkscape.org/namespaces/inkscape"
   version="1.1"
   id="svg844"
   xml:space="preserve"
   width="1280"
   height="640"
   viewBox="0 0 1280 640"
   sodipodi:docname="banner-github.svg"
   inkscape:version="0.92.2 5c3e80d, 2017-08-06"
   inkscape:export-filename="/Users/findutnyy/Code/indutny/peerlinks-desktop/Artwork/banner-github-1280x640.png"
   inkscape:export-xdpi="96"
   inkscape:export-ydpi="96"><metadata
     id="metadata850"><rdf:RDF><cc:Work
         rdf:about=""><dc:format>image/svg+xml</dc:format><dc:type
           rdf:resource="http://purl.org/dc/dcmitype/StillImage" /><dc:title></dc:title></cc:Work></rdf:RDF></metadata><defs
     id="defs848"><clipPath
       clipPathUnits="userSpaceOnUse"
       id="clipPath920"><path
         d="m 4179.41,7297.28 -134.56,-84.86 0.8,-2.08 c 18.49,-29.35 30,-60.66 35.25,-92.61 7.86,-47.87 1.42,-97.18 -17.95,-141.23 -9.68,-22.02 -22.55,-42.71 -38.45,-61.34 -15.91,-18.62 -34.82,-35.2 -56.83,-49.09 -29.34,-18.49 -60.66,-29.99 -92.6,-35.24 -47.88,-7.87 -97.19,-1.42 -141.23,17.95 -22.03,9.67 -42.72,22.55 -61.34,38.45 -18.63,15.91 -35.21,34.82 -49.09,56.82 -18.49,29.35 -30,60.67 -35.25,92.61 -7.86,47.87 -1.42,97.18 17.95,141.23 9.68,22.02 22.55,42.71 38.45,61.34 15.91,18.63 34.82,35.2 56.83,49.09 l -139.28,212.16 -13.79,-126.29 c -20.59,-19.43 -33.43,-40.68 -49.22,-63.37 -45.54,-65.47 -70.6,-142.41 -73.09,-221.05 -2.52,-78.59 17.81,-159.23 62.84,-230.57 29.97,-47.55 68.44,-87.09 112.06,-117.43 65.47,-45.54 142.41,-70.6 221.04,-73.09 78.59,-2.53 159.24,17.8 230.58,62.83 47.55,29.98 87.08,68.44 117.43,112.07 45.54,65.46 70.6,142.4 73.09,221.04 2.52,78.59 -18.61,161.31 -63.64,232.66 z"
         id="path918"
         inkscape:connector-curvature="0" /></clipPath><radialGradient
       fx="0"
       fy="0"
       cx="0"
       cy="0"
       r="1"
       gradientUnits="userSpaceOnUse"
       gradientTransform="matrix(614.391,455.308,455.308,-614.391,3983.98,7097.73)"
       spreadMethod="pad"
       id="radialGradient926"><stop
         style="stop-opacity:1;stop-color:#2a409e"
         offset="0"
         id="stop922" /><stop
         style="stop-opacity:1;stop-color:#7bd3dd"
         offset="1"
         id="stop924" /></radialGradient><clipPath
       clipPathUnits="userSpaceOnUse"
       id="clipPath936"><path
         d="m 4532.85,7517.59 c -29.97,47.54 -68.43,87.08 -112.06,117.42 -65.46,45.54 -142.41,70.61 -221.04,73.1 -78.59,2.52 -159.23,-17.81 -230.58,-62.84 -47.55,-29.98 -87.08,-68.44 -117.42,-112.06 -45.55,-65.47 -70.61,-142.41 -73.1,-221.05 -2.52,-78.59 17.81,-159.23 62.84,-230.57 l 134.56,84.85 v 0 c -18.49,29.35 -30,60.66 -35.25,92.61 -7.86,47.87 -1.42,97.18 17.95,141.23 9.68,22.02 22.55,42.71 38.45,61.34 15.91,18.63 34.83,35.2 56.83,49.09 29.34,18.49 60.66,29.99 92.6,35.24 47.88,7.87 97.19,1.42 141.24,-17.94 22.02,-9.68 42.71,-22.56 61.34,-38.46 18.62,-15.9 35.2,-34.82 49.08,-56.82 18.49,-29.35 30,-60.66 35.25,-92.61 7.87,-47.87 1.42,-97.18 -17.95,-141.23 -9.68,-22.02 -22.55,-42.71 -38.45,-61.34 -15.91,-18.63 -34.82,-35.2 -56.83,-49.09 l 133.8,-212.16 13.79,126.29 c 20.59,19.43 38.92,40.68 54.7,63.37 45.54,65.47 70.6,142.41 73.09,221.05 2.53,78.59 -17.81,159.23 -62.84,230.58 z"
         id="path934"
         inkscape:connector-curvature="0" /></clipPath><radialGradient
       fx="0"
       fy="0"
       cx="0"
       cy="0"
       r="1"
       gradientUnits="userSpaceOnUse"
       gradientTransform="matrix(614.393,455.309,455.309,-614.393,3983.98,7097.73)"
       spreadMethod="pad"
       id="radialGradient942"><stop
         style="stop-opacity:1;stop-color:#2a409e"
         offset="0"
         id="stop938" /><stop
         style="stop-opacity:1;stop-color:#7bd3dd"
         offset="1"
         id="stop940" /></radialGradient><clipPath
       clipPathUnits="userSpaceOnUse"
       id="clipPath952"><path
         d="m 3818.5,6684.92 c -4.22,0 -8.44,0.07 -12.65,0.21 -77.37,2.45 -151.76,27.04 -215.13,71.13 -43.74,30.42 -80.43,68.87 -109.05,114.27 -42.56,67.43 -63.7,145.02 -61.15,224.38 2.45,77.36 27.05,151.75 71.13,215.13 15.35,22.06 33.25,42.81 53.23,61.66 l 2.93,2.77 10.82,99.05 111.29,-176.48 c -18.7,-12.91 -35.53,-28.08 -50.16,-45.2 -16.42,-19.24 -29.93,-40.79 -40.15,-64.05 -20.46,-46.52 -26.94,-97.5 -18.73,-147.42 5.64,-34.37 18.03,-66.9 36.79,-96.68 14.12,-22.39 31.36,-42.35 51.24,-59.32 19.24,-16.42 40.78,-29.93 64.05,-40.15 32.96,-14.49 69.43,-22.15 105.47,-22.15 14.05,0 28.17,1.15 41.96,3.41 34.38,5.65 66.9,18.03 96.67,36.79 22.4,14.14 42.36,31.38 59.33,51.26 16.42,19.23 29.93,40.79 40.15,64.05 20.45,46.52 26.93,97.49 18.73,147.42 -5.06,30.78 -15.52,60.1 -31.13,87.27 l 116.07,73.2 c 38.71,-65.19 57.85,-139.3 55.42,-215.01 -2.45,-77.37 -27.05,-151.76 -71.14,-215.13 -30.42,-43.74 -68.87,-80.43 -114.27,-109.05 -63.59,-40.14 -136.8,-61.36 -211.71,-61.36 z"
         id="path950"
         inkscape:connector-curvature="0" /></clipPath><radialGradient
       fx="0"
       fy="0"
       cx="0"
       cy="0"
       r="1"
       gradientUnits="userSpaceOnUse"
       gradientTransform="matrix(586.535,434.664,434.664,-586.535,3963.52,7091.79)"
       spreadMethod="pad"
       id="radialGradient958"><stop
         style="stop-opacity:1;stop-color:#7bd3dd"
         offset="0"
         id="stop954" /><stop
         style="stop-opacity:1;stop-color:#2a409e"
         offset="1"
         id="stop956" /></radialGradient><clipPath
       clipPathUnits="userSpaceOnUse"
       id="clipPath968"><path
         d="m 4318.87,7090.71 c 18.69,12.9 35.52,28.07 50.16,45.2 16.42,19.25 29.93,40.79 40.15,64.05 20.46,46.52 26.93,97.5 18.73,147.43 -5.65,34.37 -18.03,66.89 -36.79,96.67 -14.13,22.39 -31.37,42.35 -51.25,59.32 -19.24,16.43 -40.79,29.94 -64.05,40.15 -32.94,14.5 -69.41,22.16 -105.45,22.16 -14.05,0 -28.17,-1.16 -41.97,-3.42 -34.36,-5.65 -66.89,-18.03 -96.67,-36.79 -22.38,-14.12 -42.34,-31.36 -59.33,-51.25 -16.42,-19.24 -29.93,-40.79 -40.15,-64.05 -20.46,-46.52 -26.93,-97.5 -18.73,-147.43 5.06,-30.78 15.52,-60.1 31.13,-87.27 l -116.07,-73.2 c -38.71,65.2 -57.85,139.3 -55.42,215.01 2.45,77.37 27.05,151.76 71.13,215.14 30.43,43.73 68.87,80.42 114.27,109.04 63.6,40.14 136.81,61.36 211.73,61.36 4.22,0 8.44,-0.07 12.65,-0.21 77.37,-2.44 151.76,-27.04 215.13,-71.13 43.74,-30.43 80.43,-68.87 109.05,-114.27 42.55,-67.42 63.7,-145.01 61.15,-224.37 -2.45,-77.37 -27.05,-151.76 -71.13,-215.13 -15.37,-22.09 -33.27,-42.83 -53.23,-61.66 l -2.94,-2.77 -10.81,-99.05 z"
         id="path966"
         inkscape:connector-curvature="0" /></clipPath><radialGradient
       fx="0"
       fy="0"
       cx="0"
       cy="0"
       r="1"
       gradientUnits="userSpaceOnUse"
       gradientTransform="matrix(596.122,441.769,441.769,-596.122,3972.98,7124.11)"
       spreadMethod="pad"
       id="radialGradient974"><stop
         style="stop-opacity:1;stop-color:#7bd3dd"
         offset="0"
         id="stop970" /><stop
         style="stop-opacity:1;stop-color:#2a409e"
         offset="1"
         id="stop972" /></radialGradient><clipPath
       clipPathUnits="userSpaceOnUse"
       id="clipPath1008"><path
         d="m 4040.7,9447.12 h -73.92 v -336.45 h 240.31 v 69.3 H 4040.7 Z"
         id="path1006"
         inkscape:connector-curvature="0" /></clipPath><radialGradient
       fx="0"
       fy="0"
       cx="0"
       cy="0"
       r="1"
       gradientUnits="userSpaceOnUse"
       gradientTransform="matrix(881.65,0,0,-881.65,4537.18,9155.89)"
       spreadMethod="pad"
       id="radialGradient1014"><stop
         style="stop-opacity:1;stop-color:#64cdf3"
         offset="0"
         id="stop1010" /><stop
         style="stop-opacity:1;stop-color:#2a409e"
         offset="1"
         id="stop1012" /></radialGradient><clipPath
       clipPathUnits="userSpaceOnUse"
       id="clipPath1024"><path
         d="m 4326.16,9436.82 c -7.61,6.66 -17.43,9.83 -27.15,9.84 -9.72,-0.01 -19.54,-3.18 -27.14,-9.84 -7.62,-6.63 -12.65,-16.94 -12.59,-29.55 -0.06,-12.61 4.97,-22.91 12.59,-29.55 7.6,-6.66 17.42,-9.83 27.14,-9.84 9.72,0.01 19.54,3.18 27.15,9.84 7.62,6.64 12.64,16.94 12.59,29.55 0.05,12.61 -4.97,22.92 -12.59,29.55 z"
         id="path1022"
         inkscape:connector-curvature="0" /></clipPath><radialGradient
       fx="0"
       fy="0"
       cx="0"
       cy="0"
       r="1"
       gradientUnits="userSpaceOnUse"
       gradientTransform="matrix(881.65,0,0,-881.65,4537.18,9155.89)"
       spreadMethod="pad"
       id="radialGradient1030"><stop
         style="stop-opacity:1;stop-color:#64cdf3"
         offset="0"
         id="stop1026" /><stop
         style="stop-opacity:1;stop-color:#2a409e"
         offset="1"
         id="stop1028" /></radialGradient><clipPath
       clipPathUnits="userSpaceOnUse"
       id="clipPath1040"><path
         d="m 4264.36,9333 v -222.33 h 69.3 v 228.79 h -69.3 z"
         id="path1038"
         inkscape:connector-curvature="0" /></clipPath><radialGradient
       fx="0"
       fy="0"
       cx="0"
       cy="0"
       r="1"
       gradientUnits="userSpaceOnUse"
       gradientTransform="matrix(881.65,0,0,-881.65,4537.18,9155.89)"
       spreadMethod="pad"
       id="radialGradient1046"><stop
         style="stop-opacity:1;stop-color:#64cdf3"
         offset="0"
         id="stop1042" /><stop
         style="stop-opacity:1;stop-color:#2a409e"
         offset="1"
         id="stop1044" /></radialGradient><clipPath
       clipPathUnits="userSpaceOnUse"
       id="clipPath1056"><path
         d="m 4539.26,9355.14 c -15.2,0.02 -29.18,-3.1 -42.25,-9.21 -9.66,-4.51 -18.79,-10.63 -27.71,-18.21 l -2.88,24.19 h -62.57 v -241.24 h 68.84 v 122.93 c -0.01,15.88 5.4,30.3 14.5,40.63 9.14,10.31 21.78,16.67 37.28,16.7 16.47,-0.07 28.03,-5.8 36.09,-15.22 8.01,-9.45 12.45,-23.15 12.45,-39.33 v -125.71 h 6.45 62.85 v 126.17 c 0.02,37.08 -11.18,66.78 -29.89,87.15 -18.69,20.4 -44.75,31.19 -73.16,31.15 z"
         id="path1054"
         inkscape:connector-curvature="0" /></clipPath><radialGradient
       fx="0"
       fy="0"
       cx="0"
       cy="0"
       r="1"
       gradientUnits="userSpaceOnUse"
       gradientTransform="matrix(881.65,0,0,-881.65,4537.18,9155.89)"
       spreadMethod="pad"
       id="radialGradient1062"><stop
         style="stop-opacity:1;stop-color:#64cdf3"
         offset="0"
         id="stop1058" /><stop
         style="stop-opacity:1;stop-color:#2a409e"
         offset="1"
         id="stop1060" /></radialGradient><clipPath
       clipPathUnits="userSpaceOnUse"
       id="clipPath1072"><path
         d="m 4914.45,9339.29 v 12.15 h -76.94 l -67.26,-80.21 v 175.43 h -6.46 -62.84 v -335.99 h 69.3 v 92.2 l 79.8,-92.2 h 77.35 v 13.12 l -103.61,114.01 z"
         id="path1070"
         inkscape:connector-curvature="0" /></clipPath><radialGradient
       fx="0"
       fy="0"
       cx="0"
       cy="0"
       r="1"
       gradientUnits="userSpaceOnUse"
       gradientTransform="matrix(881.65,0,0,-881.65,4537.18,9155.89)"
       spreadMethod="pad"
       id="radialGradient1078"><stop
         style="stop-opacity:1;stop-color:#64cdf3"
         offset="0"
         id="stop1074" /><stop
         style="stop-opacity:1;stop-color:#2a409e"
         offset="1"
         id="stop1076" /></radialGradient><clipPath
       clipPathUnits="userSpaceOnUse"
       id="clipPath1088"><path
         d="m 5161.74,9231.93 c -9.73,15.93 -25.31,25.29 -42.05,30.86 -16.78,5.6 -35.02,7.62 -51.37,8.68 -14.03,0.86 -23.81,3.42 -29.29,6.73 -2.77,1.66 -4.46,3.38 -5.54,5.2 -1.07,1.82 -1.64,3.85 -1.65,6.59 0.02,2.47 0.59,4.33 1.7,6.08 1.65,2.58 4.95,5.15 10.58,7.07 5.58,1.91 13.31,3.05 22.86,3.04 10.36,0 19.68,-1.21 28.19,-4.11 8.52,-2.9 16.3,-7.45 23.76,-14.47 l 4.95,-4.67 4.4,5.18 35.55,41.83 -4.78,4.19 c -13.73,12.06 -27.9,20.1 -43.19,24.98 -15.29,4.9 -31.6,6.67 -49.8,6.67 -21.74,-0.03 -46.71,-4.73 -66.97,-16.74 -10.11,-6.02 -19.05,-13.94 -25.46,-24.11 -6.42,-10.15 -10.18,-22.5 -10.17,-36.79 -0.01,-14 3.53,-26.01 9.67,-35.84 9.22,-14.8 23.88,-24.46 40.01,-30.75 16.17,-6.29 34.02,-9.31 50.58,-10.57 h 0.04 0.07 c 15.8,-0.86 26.48,-3.05 32.16,-6.09 2.86,-1.52 4.44,-3.05 5.46,-4.71 1,-1.68 1.58,-3.73 1.6,-6.79 -0.02,-2.81 -0.78,-5.26 -2.3,-7.67 -2.26,-3.59 -6.44,-6.97 -11.95,-9.36 -5.49,-2.4 -12.22,-3.8 -19.16,-3.8 l -1.14,0.01 c -11.67,0.2 -26.74,3.5 -40.53,8.92 -13.81,5.38 -26.4,13 -33.37,20.84 l -5.47,6.09 -35.37,-51.29 3.64,-3.8 c 17.31,-18.05 35.67,-28.87 54.29,-34.99 18.61,-6.15 37.38,-7.66 55.75,-7.67 33.7,0 59.79,8.98 77.57,23.87 17.8,14.85 26.91,35.61 26.87,57.46 0.01,16.1 -3.67,29.36 -10.14,39.93 z"
         id="path1086"
         inkscape:connector-curvature="0" /></clipPath><radialGradient
       fx="0"
       fy="0"
       cx="0"
       cy="0"
       r="1"
       gradientUnits="userSpaceOnUse"
       gradientTransform="matrix(881.65,0,0,-881.65,4537.18,9155.89)"
       spreadMethod="pad"
       id="radialGradient1094"><stop
         style="stop-opacity:1;stop-color:#64cdf3"
         offset="0"
         id="stop1090" /><stop
         style="stop-opacity:1;stop-color:#2a409e"
         offset="1"
         id="stop1092" /></radialGradient><clipPath
       clipPathUnits="userSpaceOnUse"
       id="clipPath1108"><path
         d="m 3840.63,9584.89 h -149.98 c -111.58,0 -202.03,90.45 -202.03,202.03 v 634.88 c 0,111.6 90.45,202.1 202.03,202.1 h 634.91 c 111.58,0 202.03,-90.5 202.03,-202.1 v -339.9 l -0.64,1.1 -1.38,2 -0.88,1.5 -1.39,2 -0.87,1.5 -1.38,1.9 -0.88,1.6 -1.4,1.9 -0.87,1.5 -1.38,2 -0.88,1.5 -1.39,2 -0.87,1.5 -1.38,2 -0.88,1.5 -1.39,2 -0.87,1.5 -1.39,2 -0.88,1.5 -1.39,1.9 -0.87,1.5 -1.39,2 -0.87,1.5 -1.39,2 -0.87,1.5 -1.39,2 -0.88,1.5 -1.38,2 -0.88,1.5 -1.38,1.9 -0.88,1.6 -1.39,1.9 -0.87,1.5 -1.39,2 -0.88,1.5 -1.39,2 -0.87,1.5 -1.39,2 -0.87,1.5 -1.39,2 -0.87,1.5 -1.39,1.9 -0.87,1.6 -1.39,1.9 -0.88,1.5 -1.38,2 -0.88,1.5 -1.39,2 -0.87,1.5 -1.39,2 -0.88,1.5 -1.38,2 -0.88,1.5 -1.39,1.9 -0.87,1.6 -1.38,1.9 -0.88,1.5 -1.39,2 -0.87,1.5 -1.39,2 -0.87,1.5 -1.4,2 -0.87,1.5 -1.38,1.9 -0.88,1.6 -1.39,1.9 -0.87,1.5 -1.38,2 -0.89,1.5 -1.39,2 -0.87,1.5 -1.38,2 -0.88,1.5 -1.39,2 -0.87,1.5 -1.39,1.9 -0.87,1.6 -1.39,1.9 -0.88,1.5 -1.38,2 -0.88,1.5 -1.39,2 -0.87,1.5 -1.39,2 -0.87,1.5 -1.39,2 -0.87,1.5 -1.39,1.9 -0.88,1.6 -1.38,1.9 -0.88,1.5 -1.39,2 -0.87,1.5 -1.39,2 -0.87,1.5 -1.39,2 -0.88,1.5 -1.39,2 -0.87,1.5 -1.38,1.9 -0.88,1.6 -1.39,1.9 -0.87,1.5 -1.39,2 -0.87,1.5 -1.39,2 -0.88,1.5 -1.39,2 -0.87,1.5 -1.39,2 -0.87,1.5 -1.39,1.9 -0.88,1.6 -1.38,1.9 -0.88,1.5 -1.39,2 -0.87,1.5 -1.38,2 -0.88,1.5 -1.39,2 -0.87,1.5 -1.39,1.9 -0.87,1.6 -1.4,1.9 -0.87,1.5 -1.38,2 -0.88,1.5 -1.39,2 -0.87,1.5 -1.39,2 -0.88,1.5 -1.39,2 -0.87,1.5 -1.38,1.9 -0.88,1.6 -1.39,1.9 -0.87,1.5 -1.39,2 -0.87,1.5 -1.39,2 -0.88,1.5 -1.39,2 -0.87,1.5 c -20.57,32.6 -46.96,59.8 -76.9,80.6 -44.93,31.2 -97.73,48.4 -151.69,50.1 -2.97,0.1 -5.95,0.2 -8.92,0.2 -51.09,0 -103.05,-14.1 -149.32,-43.3 -32.63,-20.6 -59.76,-47 -80.58,-76.9 -31.25,-44.9 -48.45,-97.7 -50.16,-151.7 -3.07,-80.2 42.48,-158.2 42.48,-158.2 -93.78,132.4 -187.32,287.5 -187.32,287.5 l -9.46,-86.7 c -14.13,-13.3 -26.71,-27.9 -37.54,-43.5 -31.25,-44.9 -48.45,-97.7 -50.16,-151.7 -1.73,-53.93 12.22,-109.27 43.12,-158.23 l 1.38,-1.97 0.88,-1.52 1.4,-1.98 0.86,-1.5 1.39,-1.96 0.88,-1.52 1.39,-1.98 0.87,-1.5 1.38,-1.97 0.88,-1.52 1.4,-1.98 0.87,-1.5 1.38,-1.96 0.88,-1.52 1.39,-1.98 0.87,-1.5 1.39,-1.98 0.87,-1.51 1.39,-1.97 0.87,-1.51 1.39,-1.97 0.88,-1.51 1.39,-1.98 0.87,-1.5 1.39,-1.98 0.87,-1.51 1.39,-1.97 0.87,-1.51 1.39,-1.97 0.88,-1.51 1.38,-1.97 0.88,-1.51 1.38,-1.98 0.88,-1.51 1.38,-1.97 0.88,-1.51 1.39,-1.98 0.88,-1.5 1.38,-1.97 0.88,-1.52 1.39,-1.98 0.87,-1.5 1.39,-1.97 0.87,-1.51 1.39,-1.98 0.87,-1.5 1.39,-1.97 0.88,-1.52 1.38,-1.97 0.88,-1.51 1.39,-1.97 0.87,-1.51 1.39,-1.98 0.87,-1.51 1.39,-1.97 0.88,-1.51 1.38,-1.97 0.88,-1.51 1.38,-1.97 0.88,-1.52 1.39,-1.97 0.87,-1.51 1.39,-1.97 0.87,-1.51 1.4,-1.98 0.87,-1.5 1.38,-1.97 0.88,-1.52 1.39,-1.98 0.87,-1.5 1.38,-1.96 0.88,-1.52 1.4,-1.98 0.87,-1.5 1.38,-1.97 0.88,-1.52 1.39,-1.98 0.87,-1.5 1.38,-1.96 0.88,-1.52 1.4,-1.98 0.86,-1.5 1.39,-1.98 0.88,-1.51 1.39,-1.97 0.87,-1.51 1.39,-1.97 0.87,-1.51 1.39,-1.98 0.87,-1.5 1.39,-1.98 0.88,-1.51 1.38,-1.97 0.88,-1.51 1.38,-1.97 0.88,-1.51 1.39,-1.97 0.87,-1.52 1.39,-1.98 0.88,-1.5 1.38,-1.96 0.88,-1.52 1.39,-1.99 0.87,-1.49 1.39,-1.98 0.87,-1.51 1.39,-1.97 0.87,-1.51 1.39,-1.97 0.88,-1.51 1.38,-1.98 0.88,-1.51 1.39,-1.97 0.87,-1.51 1.39,-1.97 0.87,-1.51 1.39,-1.97 0.88,-1.52 1.38,-1.97 0.88,-1.51 1.38,-1.97 0.88,-1.51 1.39,-1.98 0.87,-1.5 1.39,-1.97 0.87,-1.52 1.4,-1.98 0.87,-1.5 1.38,-1.96 0.88,-1.52 1.39,-1.98 0.87,-1.5 1.38,-1.97 0.88,-1.52 1.4,-1.98 0.87,-1.5 1.38,-1.96 0.88,-1.52 1.39,-1.98 0.87,-1.5 1.39,-1.98 0.87,-1.51 1.39,-1.97 0.88,-1.51 1.38,-1.97 0.88,-1.51 1.39,-1.98 0.87,-1.51 1.39,-1.97 0.87,-1.51 1.39,-1.97 0.87,-1.51 1.39,-1.97 0.88,-1.52 1.38,-1.97 0.88,-1.51 1.39,-1.97 0.87,-1.51 1.39,-1.96 0.88,-1.52 1.39,-1.98 0.87,-1.51 1.38,-1.97 0.88,-1.51 1.39,-1.97 0.87,-1.51 1.39,-1.97 0.87,-1.52 0.72,-1.02"
         id="path1106"
         inkscape:connector-curvature="0" /></clipPath><radialGradient
       fx="0"
       fy="0"
       cx="0"
       cy="0"
       r="1"
       gradientUnits="userSpaceOnUse"
       gradientTransform="matrix(1010.21,0,0,-1010.21,4023.23,9983.06)"
       spreadMethod="pad"
       id="radialGradient1114"><stop
         style="stop-opacity:1;stop-color:#7bd3dd"
         offset="0"
         id="stop1110" /><stop
         style="stop-opacity:1;stop-color:#2a409e"
         offset="1"
         id="stop1112" /></radialGradient><clipPath
       clipPathUnits="userSpaceOnUse"
       id="clipPath1124"><path
         d="m 4527.59,9786.92 c 0,-111.58 -90.45,-202.03 -202.03,-202.03 h -634.91 c -111.58,0 -202.03,90.45 -202.03,202.03 v 634.88 c 0,111.6 90.45,202.1 202.03,202.1 h 634.91 c 111.58,0 202.03,-90.5 202.03,-202.1 v -634.88"
         id="path1122"
         inkscape:connector-curvature="0" /></clipPath><clipPath
       clipPathUnits="userSpaceOnUse"
       id="clipPath1130"><path
         d="m 4325.56,9584.89 h -484.93 l -0.72,1.02 -0.87,1.52 -1.39,1.97 -0.87,1.51 -1.39,1.97 -0.88,1.51 -1.38,1.97 -0.87,1.51 -1.39,1.98 -0.88,1.52 -1.39,1.96 -0.87,1.51 -1.39,1.97 -0.88,1.51 -1.38,1.97 -0.88,1.52 -1.39,1.97 -0.87,1.51 -1.39,1.97 -0.87,1.51 -1.39,1.97 -0.87,1.51 -1.39,1.98 -0.88,1.51 -1.38,1.97 -0.88,1.51 -1.39,1.97 -0.87,1.51 -1.39,1.98 -0.87,1.5 -1.39,1.98 -0.88,1.52 -1.38,1.96 -0.87,1.5 -1.4,1.98 -0.88,1.52 -1.38,1.97 -0.87,1.5 -1.39,1.98 -0.88,1.52 -1.38,1.96 -0.87,1.5 -1.4,1.98 -0.87,1.52 -1.39,1.97 -0.87,1.5 -1.39,1.98 -0.88,1.51 -1.38,1.97 -0.88,1.51 -1.38,1.97 -0.88,1.52 -1.39,1.97 -0.87,1.51 -1.39,1.97 -0.87,1.51 -1.39,1.97 -0.88,1.51 -1.38,1.98 -0.88,1.51 -1.39,1.97 -0.87,1.51 -1.39,1.97 -0.87,1.51 -1.39,1.98 -0.87,1.49 -1.39,1.99 -0.88,1.52 -1.38,1.96 -0.88,1.5 -1.39,1.98 -0.87,1.52 -1.39,1.97 -0.88,1.51 -1.38,1.97 -0.88,1.51 -1.38,1.97 -0.88,1.51 -1.39,1.98 -0.87,1.5 -1.39,1.98 -0.87,1.51 -1.39,1.97 -0.87,1.51 -1.39,1.97 -0.88,1.51 -1.39,1.98 -0.86,1.5 -1.4,1.98 -0.88,1.52 -1.38,1.96 -0.87,1.5 -1.39,1.98 -0.88,1.52 -1.38,1.97 -0.87,1.5 -1.4,1.98 -0.88,1.52 -1.38,1.96 -0.87,1.5 -1.39,1.98 -0.88,1.52 -1.38,1.97 -0.87,1.5 -1.4,1.98 -0.87,1.51 -1.39,1.97 -0.87,1.51 -1.39,1.97 -0.88,1.52 -1.38,1.97 -0.88,1.51 -1.38,1.97 -0.88,1.51 -1.39,1.97 -0.87,1.51 -1.39,1.98 -0.87,1.51 -1.39,1.97 -0.88,1.51 -1.38,1.97 -0.88,1.52 -1.39,1.97 -0.87,1.5 -1.39,1.98 -0.87,1.51 -1.39,1.97 -0.87,1.5 -1.39,1.98 -0.88,1.52 -1.38,1.97 -0.88,1.5 -1.39,1.98 -0.88,1.51 -1.38,1.97 -0.88,1.51 -1.38,1.98 -0.88,1.51 -1.38,1.97 -0.88,1.51 -1.39,1.97 -0.87,1.51 -1.39,1.97 -0.87,1.51 -1.39,1.98 -0.87,1.5 -1.39,1.98 -0.88,1.51 -1.39,1.97 -0.87,1.51 -1.39,1.97 -0.87,1.51 -1.39,1.98 -0.87,1.5 -1.39,1.98 -0.88,1.52 -1.38,1.96 -0.87,1.5 -1.4,1.98 -0.88,1.52 -1.38,1.97 -0.87,1.5 -1.39,1.98 -0.88,1.52 -1.39,1.96 -0.86,1.5 -1.4,1.98 -0.88,1.52 -1.38,1.97 c -30.9,48.96 -44.85,104.3 -43.12,158.23 1.71,54 18.91,106.8 50.16,151.7 10.83,15.6 23.41,30.2 37.54,43.5 l 9.46,86.7 c 0,0 93.54,-155.1 187.32,-287.5 0,0 -45.55,78 -42.48,158.2 1.71,54 18.91,106.8 50.16,151.7 20.82,29.9 47.95,56.3 80.58,76.9 46.27,29.2 98.23,43.3 149.32,43.3 2.97,0 5.95,-0.1 8.92,-0.2 53.96,-1.7 106.76,-18.9 151.69,-50.1 29.94,-20.8 56.33,-48 76.9,-80.6 l 0.87,-1.5 1.39,-2 0.88,-1.5 1.39,-2 0.87,-1.5 1.39,-2 0.87,-1.5 1.39,-1.9 0.88,-1.6 1.38,-1.9 0.87,-1.5 1.39,-2 0.88,-1.5 1.39,-2 0.87,-1.5 1.39,-2 0.88,-1.5 1.38,-2 0.87,-1.5 1.4,-1.9 0.87,-1.6 1.39,-1.9 0.87,-1.5 1.39,-2 0.88,-1.5 1.38,-2 0.87,-1.5 1.39,-2 0.88,-1.5 1.38,-1.9 0.88,-1.6 1.39,-1.9 0.87,-1.5 1.39,-2 0.87,-1.5 1.39,-2 0.88,-1.5 1.39,-2 0.87,-1.5 1.39,-2 0.87,-1.5 1.39,-1.9 0.88,-1.6 1.38,-1.9 0.87,-1.5 1.39,-2 0.88,-1.5 1.39,-2 0.87,-1.5 1.39,-2 0.87,-1.5 1.39,-2 0.88,-1.5 1.38,-1.9 0.88,-1.6 1.39,-1.9 0.87,-1.5 1.39,-2 0.87,-1.5 1.39,-2 0.87,-1.5 1.39,-2 0.88,-1.5 1.38,-2 0.88,-1.5 1.39,-1.9 0.87,-1.6 1.39,-1.9 0.87,-1.5 1.39,-2 0.88,-1.5 1.38,-2 0.87,-1.5 1.39,-2 0.89,-1.5 1.38,-2 0.87,-1.5 1.39,-1.9 0.88,-1.6 1.38,-1.9 0.87,-1.5 1.4,-2 0.87,-1.5 1.39,-2 0.87,-1.5 1.39,-2 0.88,-1.5 1.38,-1.9 0.87,-1.6 1.39,-1.9 0.88,-1.5 1.38,-2 0.88,-1.5 1.39,-2 0.87,-1.5 1.39,-2 0.88,-1.5 1.38,-2 0.88,-1.5 1.39,-1.9 0.87,-1.6 1.39,-1.9 0.87,-1.5 1.39,-2 0.87,-1.5 1.39,-2 0.87,-1.5 1.39,-2 0.88,-1.5 1.39,-2 0.87,-1.5 1.39,-1.9 0.88,-1.6 1.38,-1.9 0.88,-1.5 1.38,-2 0.88,-1.5 1.39,-2 0.87,-1.5 1.39,-2 0.87,-1.5 1.39,-2 0.87,-1.5 1.39,-1.9 0.88,-1.5 1.39,-2 0.87,-1.5 1.39,-2 0.88,-1.5 1.38,-2 0.87,-1.5 1.39,-2 0.88,-1.5 1.38,-2 0.87,-1.5 1.4,-1.9 0.88,-1.6 1.38,-1.9 0.87,-1.5 1.39,-2 0.88,-1.5 1.38,-2 0.64,-1.1 v -294.98 c 0,-111.58 -90.45,-202.03 -202.03,-202.03"
         id="path1128"
         inkscape:connector-curvature="0" /></clipPath><radialGradient
       fx="0"
       fy="0"
       cx="0"
       cy="0"
       r="1"
       gradientUnits="userSpaceOnUse"
       gradientTransform="matrix(1010.21,0,0,-1010.21,4023.23,9983.06)"
       spreadMethod="pad"
       id="radialGradient1136"><stop
         style="stop-opacity:1;stop-color:#4bc3cf"
         offset="0"
         id="stop1132" /><stop
         style="stop-opacity:1;stop-color:#2a3b90"
         offset="1"
         id="stop1134" /></radialGradient></defs><sodipodi:namedview
     pagecolor="#ffffff"
     bordercolor="#666666"
     borderopacity="1"
     objecttolerance="10"
     gridtolerance="10"
     guidetolerance="10"
     inkscape:pageopacity="0"
     inkscape:pageshadow="2"
     inkscape:window-width="1682"
     inkscape:window-height="1012"
     id="namedview846"
     showgrid="false"
     inkscape:zoom="0.46015625"
     inkscape:cx="891.90452"
     inkscape:cy="350.56628"
     inkscape:window-x="0"
     inkscape:window-y="0"
     inkscape:window-maximized="0"
     inkscape:current-layer="g852"
     showguides="true"
     inkscape:guide-bbox="true"><sodipodi:guide
       position="684.55008,608.48896"
       orientation="0,1"
       id="guide2060"
       inkscape:locked="false" /><sodipodi:guide
       position="854.05772,32.597623"
       orientation="0,1"
       id="guide2062"
       inkscape:locked="false" /><sodipodi:guide
       position="927.94567,543.29372"
       orientation="0,1"
       id="guide2064"
       inkscape:locked="false" /><sodipodi:guide
       position="1017.0458,143.42954"
       orientation="0,1"
       id="guide2066"
       inkscape:locked="false" /></sodipodi:namedview><g
     id="g852"
     inkscape:groupmode="layer"
     inkscape:label="ink_ext_XXXXXX"
     transform="matrix(1.3333333,0,0,-1.3333333,0,640.00008)"><g
       id="g2044"
       transform="matrix(2.6428247,0,0,2.6428247,116.73599,170.2154)"><path
         d="m 163.23931,82.153714 c -2.23772,0 -4.08077,-0.07553 -5.52537,-0.217162 V 65.441718 h 4.26582 c 4.24222,0 7.50626,0.585392 9.79119,1.77506 2.28303,1.189667 3.42644,3.436817 3.42644,6.75089 0,1.586224 -0.30403,2.917518 -0.90925,3.984442 -0.60617,1.076366 -1.44554,1.916687 -2.51719,2.520962 -1.07354,0.604276 -2.34347,1.038599 -3.81167,1.293528 -1.46821,0.254928 -3.04216,0.387114 -4.71997,0.387114 z m -0.62977,7.619536 c 7.03888,0 12.43584,-1.284085 16.18896,-3.842814 3.75219,-2.568171 5.63017,-6.580939 5.63017,-12.02886 0,-2.851425 -0.50136,-5.277969 -1.50408,-7.307958 -1.00273,-2.029988 -2.4596,-3.682304 -4.37063,-4.966389 -1.91197,-1.284086 -4.24221,-2.228266 -6.99357,-2.832542 -2.75135,-0.604275 -5.89831,-0.906413 -9.43994,-0.906413 h -4.40651 V 40.81749 h -8.81112 v 47.766093 c 2.05077,0.462648 4.32342,0.78367 6.81795,0.94418 2.49359,0.160511 4.79079,0.245487 6.88877,0.245487"
         style="fill:#100f0d;fill-opacity:1;fill-rule:nonzero;stroke:none;stroke-width:0.0944182"
         id="path886"
         inkscape:connector-curvature="0" /><path
         d="m 211.70047,62.713036 c 0,1.161342 -0.16429,2.266034 -0.48909,3.314074 -0.32669,1.057482 -0.80445,1.963896 -1.43422,2.728682 -0.62977,0.774228 -1.39833,1.378503 -2.30758,1.822268 -0.90925,0.443765 -1.99317,0.660927 -3.25177,0.660927 -1.3058,0 -2.44732,-0.245487 -3.42644,-0.736461 -0.97912,-0.481532 -1.80717,-1.123575 -2.4832,-1.916687 -0.67604,-0.793111 -1.20006,-1.708966 -1.57301,-2.728681 -0.3739,-1.029157 -0.62977,-2.077198 -0.76951,-3.144122 z m -24.54594,-3.776722 c 0,3.210214 0.47776,6.033314 1.43327,8.459858 0.95551,2.426544 2.22638,4.437648 3.81167,6.042755 1.58434,1.614549 3.40283,2.8231 5.45455,3.644537 2.05076,0.811995 4.14874,1.217993 6.29392,1.217993 5.03533,0 8.96219,-1.557898 11.78341,-4.683135 2.82028,-3.125238 4.23089,-7.78949 4.23089,-13.983314 0,-0.47209 -0.0113,-0.99139 -0.0349,-1.576782 -0.0246,-0.585392 -0.0585,-1.104691 -0.1048,-1.576781 h -24.12672 c 0.23321,-2.936402 1.26993,-5.202435 3.11203,-6.816983 1.84116,-1.605107 4.51131,-2.407661 8.00762,-2.407661 2.05076,0 3.92686,0.179394 5.62922,0.557067 1.70142,0.36823 3.04216,0.764786 4.02128,1.189667 l 1.11885,-6.920843 c -0.46642,-0.236045 -1.10847,-0.481532 -1.9233,-0.736461 -0.81577,-0.254929 -1.74768,-0.490974 -2.79667,-0.698694 -1.04899,-0.207719 -2.18012,-0.387114 -3.39245,-0.528741 -1.21328,-0.132185 -2.44732,-0.207719 -3.70592,-0.207719 -3.21683,0 -6.01445,0.481532 -8.3919,1.435154 -2.37746,0.953622 -4.33569,2.284917 -5.87471,3.984442 -1.53808,1.699525 -2.68148,3.710629 -3.42644,6.01443 -0.74685,2.3038 -1.11886,4.834204 -1.11886,7.591211"
         style="fill:#100f0d;fill-opacity:1;fill-rule:nonzero;stroke:none;stroke-width:0.0944182"
         id="path888"
         inkscape:connector-curvature="0" /><path
         d="m 252.75073,62.713036 c 0,1.161342 -0.16429,2.266034 -0.48909,3.314074 -0.32668,1.057482 -0.80444,1.963896 -1.43421,2.728682 -0.62977,0.774228 -1.39834,1.378503 -2.30759,1.822268 -0.90924,0.443765 -1.99317,0.660927 -3.25176,0.660927 -1.30581,0 -2.44733,-0.245487 -3.42645,-0.736461 -0.97911,-0.481532 -1.80716,-1.123575 -2.4832,-1.916687 -0.67603,-0.793111 -1.201,-1.708966 -1.57301,-2.728681 -0.37389,-1.029157 -0.62977,-2.077198 -0.76951,-3.144122 z m -24.54594,-3.776722 c 0,3.210214 0.47682,6.033314 1.43327,8.459858 0.95457,2.426544 2.22639,4.437648 3.81167,6.042755 1.58434,1.614549 3.40284,2.8231 5.45455,3.644537 2.05077,0.811995 4.14874,1.217993 6.29393,1.217993 5.03533,0 8.96219,-1.557898 11.78341,-4.683135 2.82027,-3.125238 4.23088,-7.78949 4.23088,-13.983314 0,-0.47209 -0.0123,-0.99139 -0.0349,-1.576782 -0.0245,-0.585392 -0.0585,-1.104691 -0.10481,-1.576781 h -24.12672 c 0.23227,-2.936402 1.26993,-5.202435 3.11203,-6.816983 1.84116,-1.605107 4.51037,-2.407661 8.00762,-2.407661 2.05077,0 3.92686,0.179394 5.62922,0.557067 1.70142,0.36823 3.04216,0.764786 4.02128,1.189667 l 1.11886,-6.920843 c -0.46737,-0.236045 -1.10847,-0.481532 -1.9233,-0.736461 -0.81672,-0.254929 -1.74863,-0.490974 -2.79762,-0.698694 -1.04899,-0.207719 -2.17917,-0.387114 -3.39151,-0.528741 -1.21327,-0.132185 -2.44826,-0.207719 -3.70592,-0.207719 -3.21683,0 -6.01444,0.481532 -8.3919,1.435154 -2.3784,0.953622 -4.33663,2.284917 -5.87471,3.984442 -1.53902,1.699525 -2.68148,3.710629 -3.42644,6.01443 -0.74685,2.3038 -1.11886,4.834204 -1.11886,7.591211"
         style="fill:#100f0d;fill-opacity:1;fill-rule:nonzero;stroke:none;stroke-width:0.0944182"
         id="path890"
         inkscape:connector-curvature="0" /><path
         d="m 291.00338,69.775507 c -0.69964,0.226603 -1.66648,0.47209 -2.90148,0.727019 -1.23593,0.26437 -2.67015,0.387114 -4.30075,0.387114 -0.9338,0 -1.9233,-0.09442 -2.97229,-0.273813 -1.04899,-0.188836 -1.78356,-0.349346 -2.20278,-0.490973 V 40.81749 h -8.46272 v 34.83082 c 1.63155,0.604275 3.67193,1.180225 6.1202,1.708966 2.44732,0.538183 5.16279,0.802554 8.14641,0.802554 0.55896,0 1.21234,-0.02833 1.95824,-0.10386 0.74591,-0.06609 1.49087,-0.160511 2.23771,-0.273812 0.74591,-0.122744 1.46821,-0.254929 2.16785,-0.424882 0.6987,-0.16051 1.2586,-0.311579 1.67876,-0.453206 l -1.46915,-7.128563"
         style="fill:#100f0d;fill-opacity:1;fill-rule:nonzero;stroke:none;stroke-width:0.0944182"
         id="path892"
         inkscape:connector-curvature="0" /></g><g
       id="g2051"
       transform="matrix(2.6428247,0,0,2.6428247,-319.89235,-0.30125307)"><path
         d="M 334.4311,48.446469 V 40.81749 h -30.63026 v 48.464787 h 8.81207 V 48.446469 h 21.81819"
         style="fill:#ed105e;fill-opacity:1;fill-rule:nonzero;stroke:none;stroke-width:0.0944182"
         id="path894"
         inkscape:connector-curvature="0" /><path
         d="m 351.49532,40.81749 h -8.46271 v 36.577554 h 8.46271 z m 0.90831,47.275119 c 0,-1.586223 -0.51364,-2.841983 -1.53902,-3.776722 -1.02538,-0.934739 -2.23677,-1.397387 -3.63605,-1.397387 -1.44555,0 -2.68148,0.462648 -3.70592,1.397387 -1.02633,0.934739 -1.53902,2.190499 -1.53902,3.776722 0,1.633432 0.51269,2.917518 1.53902,3.852257 1.02444,0.925297 2.26037,1.397387 3.70592,1.397387 1.39928,0 2.61067,-0.47209 3.63605,-1.397387 1.02538,-0.934739 1.53902,-2.218825 1.53902,-3.852257"
         style="fill:#ed105e;fill-opacity:1;fill-rule:nonzero;stroke:none;stroke-width:0.0944182"
         id="path896"
         inkscape:connector-curvature="0" /><path
         d="m 363.38259,76.205376 c 1.63155,0.462649 3.75219,0.906414 6.3638,1.331295 2.61067,0.415439 5.49987,0.623159 8.67138,0.623159 2.98268,0 5.47815,-0.405998 7.4836,-1.217993 2.00356,-0.821437 3.60112,-1.954454 4.78984,-3.427375 1.18967,-1.472922 2.02811,-3.23854 2.5172,-5.315737 0.49003,-2.077197 0.73457,-4.34323 0.73457,-6.816983 V 40.81749 h -8.46177 v 19.232957 c 0,1.963896 -0.12841,3.625654 -0.38523,5.004157 -0.25587,1.369062 -0.67603,2.492637 -1.25859,3.351841 -0.58257,0.868646 -1.37568,1.491805 -2.37746,1.888361 -1.00272,0.396556 -2.22638,0.594834 -3.67098,0.594834 -1.07354,0 -2.1924,-0.06609 -3.35752,-0.20772 -1.16512,-0.141627 -2.02716,-0.254929 -2.58706,-0.349347 V 40.81749 h -8.46178 v 35.387886"
         style="fill:#ed105e;fill-opacity:1;fill-rule:nonzero;stroke:none;stroke-width:0.0944182"
         id="path898"
         inkscape:connector-curvature="0" /><path
         d="m 411.63509,63.128476 c 1.07165,1.123575 2.21317,2.322684 3.42644,3.606769 1.21139,1.274644 2.40106,2.55873 3.56713,3.842815 1.16418,1.284086 2.27265,2.520962 3.32163,3.701188 1.04899,1.189667 1.94597,2.228266 2.69282,3.115796 h 9.99984 c -2.32647,-2.61538 -4.7804,-5.315737 -7.36085,-8.110511 -2.58234,-2.794774 -5.17507,-5.523456 -7.78007,-8.186045 1.3955,-1.161342 2.86087,-2.577613 4.39612,-4.229929 1.53524,-1.652316 3.02421,-3.417934 4.46504,-5.277969 1.44271,-1.869478 2.791,-3.729513 4.04771,-5.598991 1.25671,-1.860035 2.30381,-3.587886 3.14036,-5.174109 h -9.79024 c -0.83938,1.444596 -1.80622,2.964727 -2.90148,4.55095 -1.09619,1.586223 -2.27265,3.125238 -3.53219,4.617043 -1.25859,1.491805 -2.54079,2.898634 -3.84566,4.229929 -1.30675,1.321852 -2.588,2.454869 -3.8466,3.389608 V 40.81749 h -8.46177 V 93.6916 l 8.46177,1.397387 V 63.128476"
         style="fill:#ed105e;fill-opacity:1;fill-rule:nonzero;stroke:none;stroke-width:0.0944182"
         id="path900"
         inkscape:connector-curvature="0" /><path
         d="m 453.10457,46.907454 c 2.23772,0 3.86927,0.264371 4.89559,0.802554 1.02444,0.538183 1.53808,1.454038 1.53808,2.766449 0,1.208551 -0.54857,2.209382 -1.64288,3.002494 -1.0962,0.793111 -2.90242,1.652316 -5.41961,2.587055 -1.53902,0.557066 -2.95058,1.1519 -4.23089,1.784501 -1.28315,0.623159 -2.39067,1.35962 -3.32164,2.19994 -0.9338,0.840321 -1.66837,1.850594 -2.20372,3.040262 -0.5363,1.189667 -0.8035,2.653147 -0.8035,4.371556 0,3.361282 1.23405,6.004988 3.70592,7.940558 2.47093,1.93557 5.82655,2.898634 10.06971,2.898634 2.14425,0 4.19596,-0.198278 6.15419,-0.594834 1.95824,-0.396556 3.42644,-0.774228 4.40651,-1.1519 l -1.53902,-6.854751 c -0.93286,0.424882 -2.12158,0.802554 -3.56618,1.161342 -1.44649,0.349347 -3.12431,0.5193 -5.03533,0.5193 -1.72503,0 -3.12336,-0.292696 -4.19595,-0.878088 -1.0726,-0.57595 -1.60889,-1.472922 -1.60889,-2.690915 0,-0.604275 0.1048,-1.142458 0.31441,-1.605107 0.21055,-0.462648 0.57123,-0.896971 1.08487,-1.293527 0.51174,-0.396556 1.18872,-0.793112 2.02716,-1.189667 0.84032,-0.396556 1.86476,-0.802554 3.07804,-1.227435 2.00355,-0.745903 3.70592,-1.472922 5.1052,-2.199941 1.39833,-0.717577 2.55212,-1.539014 3.46137,-2.445427 0.90925,-0.906414 1.57301,-1.945012 1.99223,-3.115796 0.42016,-1.161342 0.62977,-2.558729 0.62977,-4.192162 0,-3.493468 -1.29353,-6.146615 -3.88154,-7.940558 -2.58706,-1.793943 -6.28259,-2.690914 -11.08377,-2.690914 -3.21683,0 -5.80484,0.273812 -7.76213,0.802553 -1.95824,0.538183 -3.33391,0.972506 -4.12703,1.293527 l 1.46915,7.062471 c 1.25954,-0.509858 2.76268,-1.000832 4.51037,-1.46348 1.74863,-0.47209 3.7418,-0.698694 5.97951,-0.698694"
         style="fill:#ed105e;fill-opacity:1;fill-rule:nonzero;stroke:none;stroke-width:0.0944182"
         id="path902"
         inkscape:connector-curvature="0" /></g><g
       id="g2058"
       transform="matrix(0.9,0,0,0.9,13.200002,15.433946)"><path
         d="M 186.33566,369.96736 V 315.3704 h 91.46682 V 104.1735 H 91.558629 L 66.616684,93.230655 V 315.3704 h 48.535566 v 54.59696 H 11.999999 V 9.5179054 L 103.02911,49.576529 H 332.41917 V 369.96736 H 186.33566"
         style="fill:#ed105e;fill-opacity:1;fill-rule:nonzero;stroke:none;stroke-width:0.39081645"
         id="path904"
         inkscape:connector-curvature="0" /><path
         d="M 131.71899,489.51792 V 169.08801 h 129.6262 v 54.63605 h -75.00953 v 211.1969 H 397.52148 V 212.74212 l -24.94195,10.98194 h -40.16036 v -54.63605 h 28.68989 l 91.0291,-40.01954 V 489.51792 H 131.71899"
         style="fill:#f8b40b;fill-opacity:1;fill-rule:nonzero;stroke:none;stroke-width:0.39081645"
         id="path906"
         inkscape:connector-curvature="0" /><path
         d="m 186.45682,315.3704 h 16.56698 v 54.6165 h -16.56698 z"
         style="fill:#d21550;fill-opacity:1;fill-rule:nonzero;stroke:none;stroke-width:0.39081645"
         id="path908"
         inkscape:connector-curvature="0" /><path
         d="m 332.41917,223.72406 h 16.56697 v 0.047 h -16.56697 z"
         style="fill:#d3d2d0;fill-opacity:1;fill-rule:nonzero;stroke:none;stroke-width:0.39081645"
         id="path910"
         inkscape:connector-curvature="0" /><path
         d="m 332.41917,169.16618 h 16.56697 v 54.5661 h -16.56697 z"
         style="fill:#c99619;fill-opacity:1;fill-rule:nonzero;stroke:none;stroke-width:0.39081645"
         id="path912"
         inkscape:connector-curvature="0" /></g></g></svg>