<svg xmlns="http://www.w3.org/2000/svg" width="32" height="32" viewBox="0 0 8.467 8.467"><g fill="#e8e9eb"><path d="M4.233 0A4.233 4.233 0 000 4.233a4.233 4.233 0 004.233 4.234 4.233 4.233 0 004.234-4.234A4.233 4.233 0 004.233 0zm0 .265a3.969 3.969 0 013.97 3.968 3.969 3.969 0 01-3.97 3.97 3.969 3.969 0 01-3.968-3.97A3.969 3.969 0 014.233.265z"/><path d="M3.969 1.587a.264.264 0 00-.265.265v1.852H1.852a.264.264 0 00-.265.265v.529c0 .146.119.264.265.264h1.852v1.853c0 .146.118.264.265.264h.529a.264.264 0 00.264-.264V4.762h1.853a.264.264 0 00.264-.264v-.53a.264.264 0 00-.264-.264H4.762V1.852a.264.264 0 00-.264-.265h-.53z"/></g></svg>